SplineFontDB: 3.2
FontName: BrightSuns-Body
FullName: Bright Suns Body
FamilyName: Bright Suns
Weight: Medium
Copyright: CC-BY AurekFonts
Version: 001.000
ItalicAngle: 0
UnderlinePosition: -177.92
UnderlineWidth: 58.88
Ascent: 640
Descent: 0
InvalidEm: 0
sfntRevision: 0x00010000
LayerCount: 2
Layer: 0 1 "Back" 1
Layer: 1 1 "Fore" 0
XUID: [1021 178 1911899458 7512]
StyleMap: 0x0040
FSType: 0
OS2Version: 1
OS2_WeightWidthSlopeOnly: 0
OS2_UseTypoMetrics: 0
CreationTime: 1280473793
ModificationTime: 1594508919
PfmFamily: 17
TTFWeight: 500
TTFWidth: 5
LineGap: 107
VLineGap: 0
Panose: 2 0 6 3 0 0 0 0 0 0
OS2TypoAscent: 952
OS2TypoAOffset: 0
OS2TypoDescent: -238
OS2TypoDOffset: 0
OS2TypoLinegap: 107
OS2WinAscent: 793
OS2WinAOffset: 0
OS2WinDescent: 183
OS2WinDOffset: 0
HheadAscent: 793
HheadAOffset: 0
HheadDescent: -183
HheadDOffset: 0
OS2SubXSize: 774
OS2SubYSize: 832
OS2SubXOff: 0
OS2SubYOff: 167
OS2SupXSize: 774
OS2SupYSize: 832
OS2SupXOff: 0
OS2SupYOff: 570
OS2StrikeYSize: 58
OS2StrikeYPos: 307
OS2Vendor: '2ttf'
OS2CodePages: 00000001.00000000
OS2UnicodeRanges: 00000001.00000000.00000000.00000000
MarkAttachClasses: 1
DEI: 91125
ShortTable: cvt  2
  33
  633
EndShort
ShortTable: maxp 16
  1
  0
  40
  558
  3
  0
  0
  2
  0
  1
  1
  0
  64
  0
  0
  0
EndShort
LangName: 1033 "" "" "" "BrightSuns:Body"
GaspTable: 1 65535 2 0
Encoding: UnicodeBmp
UnicodeInterp: none
NameList: AGL For New Fonts
DisplaySize: -72
AntiAlias: 1
FitToEm: 0
WinInfo: 25 25 10
BeginPrivate: 0
EndPrivate
BeginChars: 65539 40

StartChar: .notdef
Encoding: 65536 -1 0
Width: 364
VWidth: 1000
Flags: W
LayerCount: 2
Fore
SplineSet
66 33 m 1,0,-1
 265 33 l 1,1,-1
 265 633 l 1,2,-1
 66 633 l 1,3,-1
 66 33 l 1,0,-1
33 0 m 1,4,-1
 33 666 l 1,5,-1
 298 666 l 1,6,-1
 298 0 l 1,7,-1
 33 0 l 1,4,-1
EndSplineSet
EndChar

StartChar: zero
Encoding: 48 48 4
Width: 795
VWidth: 1000
GlyphClass: 2
Flags: W
LayerCount: 2
Fore
SplineSet
565 508 m 1,0,-1
 564 508 l 1,1,-1
 563 508 l 1,2,-1
 562 508 l 1,3,-1
 561 508 l 1,4,-1
 560 508 l 1,5,-1
 559 508 l 1,6,-1
 558 508 l 1,7,-1
 557 508 l 1,8,-1
 556 508 l 1,9,-1
 555 508 l 1,10,-1
 554 508 l 1,11,-1
 553 508 l 1,12,-1
 552 508 l 1,13,-1
 551 508 l 1,14,-1
 550 508 l 1,15,-1
 549 508 l 1,16,-1
 548 508 l 1,17,-1
 547 508 l 1,18,-1
 546 508 l 1,19,-1
 544 508 l 2,20,21
 470 507 470 507 381.5 506 c 128,-1,22
 293 505 293 505 219 504 c 0,23,24
 217 504 217 504 212.5 504 c 128,-1,25
 208 504 208 504 207 504 c 0,26,27
 205 503 205 503 204 501 c 0,28,29
 200 497 200 497 196 493 c 1,30,31
 196 486 196 486 196 478 c 0,32,33
 196 406 196 406 196 319.5 c 128,-1,34
 196 233 196 233 196 161 c 0,35,36
 196 154 196 154 196 149 c 2,37,-1
 206 140 l 1,38,39
 232 140 232 140 233 140 c 0,40,41
 306 140 306 140 393.5 140.5 c 128,-1,42
 481 141 481 141 554 141 c 0,43,44
 557 141 557 141 558 141 c 0,45,46
 560 143 560 143 562 145 c 0,47,48
 567 150 567 150 572 155 c 1,49,50
 572 163 572 163 572 168 c 0,51,52
 572 241 572 241 573 327.5 c 128,-1,53
 574 414 574 414 574 486 c 0,54,55
 574 489 574 489 574 494 c 2,56,-1
 575 500 l 1,57,58
 570 504 570 504 565 508 c 1,0,-1
725 557 m 1,59,60
 725 556 725 556 725 555 c 0,61,62
 725 553 725 553 725 551 c 0,63,64
 725 546 725 546 725 537 c 2,65,-1
 724 485 l 2,66,67
 724 412 724 412 723 325.5 c 128,-1,68
 722 239 722 239 722 167 c 0,69,70
 722 137 722 137 721 115 c 0,71,72
 721 106 721 106 721 100 c 2,73,-1
 721 98 l 1,74,-1
 722 97 l 1,75,-1
 721 97 l 1,76,-1
 721 95 l 1,77,-1
 720 95 l 1,78,-1
 719 94 l 1,79,-1
 718 93 l 2,80,81
 713 88 713 88 707 81 c 2,82,-1
 705 79 l 1,83,-1
 704 78 l 1,84,-1
 703 77 l 1,85,-1
 702 76 l 1,86,-1
 701 74 l 1,87,-1
 700 73 l 1,88,-1
 699 72 l 1,89,-1
 698 71 l 1,90,-1
 697 71 l 1,91,-1
 697 70 l 1,92,-1
 696 69 l 1,93,-1
 695 68 l 1,94,-1
 694 67 l 1,95,-1
 694 66 l 1,96,-1
 693 66 l 1,97,-1
 692 65 l 1,98,-1
 692 64 l 1,99,-1
 691 64 l 1,100,-1
 690 63 l 1,101,-1
 690 62 l 1,102,-1
 689 61 l 1,103,-1
 688 60 l 1,104,-1
 687 59 l 1,105,-1
 686 58 l 1,106,-1
 685 57 l 1,107,-1
 684 56 l 1,108,-1
 683 55 l 1,109,-1
 682 54 l 1,110,-1
 682 53 l 1,111,-1
 681 52 l 1,112,-1
 680 51 l 1,113,-1
 679 50 l 1,114,-1
 678 50 l 1,115,-1
 678 49 l 1,116,-1
 677 48 l 1,117,-1
 676 47 l 1,118,-1
 675 46 l 1,119,-1
 673 44 l 1,120,-1
 640 7 l 2,121,122
 633 0 633 0 629 -5 c 0,123,124
 628 -5 628 -5 627 -6 c 2,125,-1
 627 -9 l 1,126,-1
 625 -9 l 1,127,-1
 624 -10 l 1,128,-1
 624 -9 l 1,129,-1
 622 -9 l 2,130,131
 619 -9 619 -9 617.5 -9 c 128,-1,132
 616 -9 616 -9 613.5 -9 c 128,-1,133
 611 -9 611 -9 607 -9 c 2,134,-1
 554 -9 l 1,135,-1
 394 -10 l 1,136,-1
 392 -10 l 1,137,-1
 391 -10 l 1,138,-1
 389 -10 l 1,139,-1
 388 -10 l 1,140,-1
 386 -10 l 1,141,-1
 385 -10 l 1,142,-1
 383 -10 l 1,143,-1
 381 -10 l 1,144,-1
 380 -10 l 1,145,-1
 378 -10 l 1,146,-1
 377 -10 l 1,147,-1
 375 -10 l 1,148,-1
 374 -10 l 1,149,-1
 373 -10 l 1,150,-1
 371 -10 l 1,151,-1
 370 -10 l 1,152,-1
 368 -10 l 1,153,-1
 367 -10 l 1,154,-1
 366 -10 l 1,155,-1
 364 -10 l 1,156,-1
 363 -10 l 1,157,-1
 362 -10 l 1,158,-1
 360 -10 l 1,159,-1
 359 -10 l 1,160,-1
 358 -10 l 1,161,-1
 356 -10 l 1,162,-1
 355 -10 l 1,163,-1
 354 -10 l 1,164,-1
 353 -10 l 1,165,-1
 351 -10 l 1,166,-1
 350 -10 l 1,167,-1
 349 -10 l 1,168,-1
 348 -10 l 1,169,-1
 347 -10 l 1,170,-1
 346 -10 l 1,171,-1
 344 -10 l 1,172,-1
 343 -10 l 1,173,-1
 342 -10 l 1,174,-1
 341 -10 l 1,175,-1
 340 -10 l 1,176,-1
 339 -10 l 1,177,-1
 338 -10 l 1,178,-1
 337 -10 l 1,179,-1
 336 -10 l 1,180,-1
 335 -10 l 1,181,-1
 334 -10 l 1,182,-1
 333 -10 l 1,183,-1
 332 -10 l 1,184,-1
 331 -10 l 1,185,-1
 330 -10 l 1,186,-1
 329 -10 l 1,187,-1
 328 -10 l 1,188,-1
 327 -10 l 1,189,-1
 326 -10 l 1,190,-1
 325 -10 l 1,191,-1
 324 -10 l 1,192,-1
 323 -10 l 1,193,-1
 322 -10 l 1,194,-1
 321 -10 l 1,195,-1
 320 -10 l 1,196,-1
 319 -10 l 1,197,-1
 318 -10 l 1,198,-1
 317 -10 l 1,199,-1
 316 -10 l 1,200,-1
 315 -10 l 1,201,-1
 314 -10 l 1,202,-1
 313 -10 l 1,203,-1
 312 -10 l 1,204,-1
 311 -10 l 1,205,-1
 310 -10 l 1,206,-1
 309 -10 l 1,207,-1
 308 -10 l 1,208,-1
 307 -10 l 1,209,-1
 306 -10 l 1,210,-1
 305 -10 l 1,211,-1
 304 -10 l 1,212,-1
 303 -10 l 1,213,-1
 302 -10 l 1,214,-1
 301 -10 l 1,215,-1
 300 -10 l 1,216,-1
 299 -10 l 1,217,-1
 298 -10 l 1,218,-1
 297 -10 l 1,219,-1
 296 -10 l 1,220,-1
 295 -10 l 1,221,-1
 294 -10 l 1,222,-1
 293 -10 l 1,223,-1
 292 -10 l 1,224,-1
 291 -10 l 1,225,-1
 290 -10 l 1,226,-1
 289 -10 l 1,227,-1
 288 -10 l 1,228,-1
 287 -10 l 1,229,-1
 286 -10 l 1,230,-1
 285 -10 l 1,231,-1
 284 -10 l 1,232,-1
 283 -10 l 1,233,-1
 282 -10 l 1,234,-1
 281 -10 l 1,235,-1
 280 -10 l 1,236,-1
 279 -10 l 1,237,-1
 278 -10 l 1,238,-1
 277 -10 l 1,239,-1
 276 -10 l 1,240,-1
 275 -10 l 1,241,-1
 274 -10 l 1,242,-1
 273 -10 l 1,243,-1
 272 -10 l 1,244,-1
 271 -10 l 1,245,-1
 270 -10 l 1,246,-1
 269 -10 l 1,247,-1
 268 -10 l 1,248,-1
 267 -10 l 1,249,-1
 266 -10 l 1,250,-1
 265 -10 l 1,251,-1
 264 -10 l 1,252,-1
 263 -10 l 1,253,-1
 262 -10 l 1,254,-1
 261 -10 l 1,255,-1
 260 -10 l 1,256,-1
 259 -10 l 1,257,-1
 258 -10 l 1,258,-1
 257 -10 l 1,259,-1
 256 -10 l 1,260,-1
 255 -10 l 1,261,-1
 254 -10 l 1,262,-1
 253 -10 l 1,263,-1
 252 -10 l 1,264,-1
 251 -10 l 1,265,-1
 250 -10 l 1,266,-1
 249 -10 l 1,267,-1
 248 -10 l 1,268,-1
 247 -10 l 1,269,-1
 246 -10 l 1,270,-1
 245 -10 l 1,271,-1
 244 -10 l 1,272,-1
 243 -10 l 1,273,-1
 242 -10 l 1,274,-1
 241 -10 l 1,275,-1
 240 -10 l 1,276,-1
 239 -10 l 1,277,-1
 238 -10 l 1,278,-1
 237 -10 l 1,279,-1
 236 -10 l 1,280,-1
 235 -10 l 1,281,-1
 234 -10 l 1,282,-1
 181 -10 l 2,283,284
 177 -10 177 -10 173 -10 c 128,-1,285
 169 -10 169 -10 166 -10 c 2,286,-1
 161 -10 l 1,287,-1
 160 -11 l 1,288,-1
 158 -12 l 1,289,-1
 47 89 l 1,290,-1
 47 95 l 1,291,-1
 47 109 l 2,292,293
 47 121 47 121 46.5 134.5 c 128,-1,294
 46 148 46 148 46 161 c 0,295,296
 46 233 46 233 46 319.5 c 128,-1,297
 46 406 46 406 46 478 c 0,298,299
 46 491 46 491 46 504.5 c 128,-1,300
 46 518 46 518 46 530 c 2,301,-1
 46 544 l 1,302,-1
 46 547 l 1,303,-1
 44 549 l 1,304,305
 45 549 45 549 48 553 c 0,306,307
 53 558 53 558 59 565 c 2,308,-1
 93 602 l 1,309,-1
 126 639 l 2,310,311
 133 646 133 646 137 651 c 0,312,313
 141 655 141 655 142 655 c 0,314,315
 143 654 143 654 144 653 c 2,316,-1
 148 654 l 2,317,318
 154 654 154 654 164 654 c 0,319,320
 186 654 186 654 217 654 c 0,321,322
 291 655 291 655 380 656 c 2,323,-1
 543 658 l 2,324,325
 574 658 574 658 596 658 c 0,326,327
 605 659 605 659 611 659 c 0,328,329
 614 659 614 659 615 659 c 2,330,-1
 616 659 l 1,331,-1
 617 659 l 1,332,333
 617 658 617 658 617 657 c 2,334,-1
 726 557 l 1,335,-1
 725 557 l 1,59,60
EndSplineSet
EndChar

StartChar: one
Encoding: 49 49 5
Width: 436
VWidth: 1000
GlyphClass: 2
Flags: W
LayerCount: 2
Fore
SplineSet
53 648 m 1,0,-1
 366 648 l 1,1,-1
 366 644 l 1,2,-1
 367 644 l 1,3,4
 367 601 367 601 366 559 c 2,5,-1
 366 482 l 2,6,7
 365 236 365 236 363 -11 c 1,8,-1
 198 -11 l 1,9,10
 200 236 200 236 201 482 c 1,11,-1
 53 482 l 1,12,-1
 53 648 l 1,0,-1
EndSplineSet
EndChar

StartChar: two
Encoding: 50 50 6
Width: 787
VWidth: 1000
GlyphClass: 2
Flags: W
LayerCount: 2
Fore
SplineSet
643 -10 m 1,0,-1
 46 -9 l 2,1,2
 46 -8 46 -8 46 -7.5 c 128,-1,3
 46 -7 46 -7 46 -6 c 1,4,-1
 45 -6 l 1,5,-1
 45 195 l 1,6,-1
 46 195 l 1,7,-1
 276 404 l 2,8,9
 277 403 277 403 277 402 c 1,10,-1
 548 404 l 1,11,-1
 548 405 l 2,12,13
 548 447 548 447 549 478 c 1,14,-1
 215 478 l 1,15,-1
 214 421 l 1,16,-1
 50 423 l 1,17,18
 50 491 50 491 50 559 c 0,19,20
 50 560 50 560 49 561 c 2,21,-1
 50 563 l 1,22,-1
 51 563 l 1,23,-1
 52 564 l 1,24,-1
 61 574 l 1,25,-1
 62 575 l 1,26,-1
 64 576 l 1,27,-1
 65 577 l 1,28,-1
 66 579 l 1,29,-1
 67 580 l 1,30,-1
 68 581 l 1,31,-1
 69 582 l 1,32,-1
 70 583 l 1,33,-1
 71 584 l 1,34,-1
 72 585 l 1,35,-1
 73 586 l 1,36,-1
 74 587 l 1,37,-1
 74 588 l 1,38,-1
 75 588 l 1,39,-1
 76 589 l 1,40,-1
 76 590 l 1,41,-1
 77 590 l 1,42,-1
 78 591 l 1,43,-1
 78 592 l 1,44,-1
 79 593 l 1,45,-1
 80 594 l 1,46,-1
 81 594 l 1,47,-1
 81 595 l 1,48,-1
 82 596 l 1,49,-1
 83 597 l 1,50,-1
 84 598 l 1,51,-1
 85 599 l 1,52,-1
 86 600 l 1,53,-1
 87 601 l 1,54,-1
 88 602 l 1,55,-1
 115 630 l 2,56,57
 120 636 120 636 124 640 c 0,58,59
 126 643 126 643 127 643 c 2,60,-1
 128 642 l 1,61,62
 385 643 385 643 643 643 c 1,63,-1
 715 571 l 1,64,-1
 714 570 l 1,65,-1
 714 567 l 1,66,-1
 714 556 l 2,67,68
 714 549 714 549 714 540 c 128,-1,69
 714 531 714 531 714 519 c 0,70,71
 714 467 714 467 713.5 404.5 c 128,-1,72
 713 342 713 342 713 291 c 0,73,74
 713 279 713 279 713 269.5 c 128,-1,75
 713 260 713 260 713 253 c 2,76,-1
 713 242 l 1,77,-1
 713 239 l 1,78,79
 643 239 643 239 572 239 c 0,80,81
 444 238 444 238 316 237 c 1,82,-1
 230 159 l 1,83,-1
 640 158 l 1,84,85
 640 159 640 159 641 160 c 1,86,87
 642 159 642 159 643 158 c 2,88,-1
 717 92 l 1,89,-1
 717 -9 l 1,90,-1
 643 -9 l 1,91,-1
 643 -10 l 1,0,-1
EndSplineSet
EndChar

StartChar: three
Encoding: 51 51 7
Width: 818
VWidth: 1000
GlyphClass: 2
Flags: W
LayerCount: 2
Fore
SplineSet
200 189 m 1,0,-1
 200 184 l 1,1,-1
 200 170 l 2,2,3
 200 168 200 168 200 139 c 1,4,-1
 210 139 l 1,5,-1
 393 139 l 1,6,-1
 577 139 l 1,7,-1
 588 139 l 1,8,9
 592 145 592 145 597 150 c 1,10,11
 597 157 597 157 597 165 c 0,12,13
 597 201 597 201 597 244 c 1,14,-1
 584 244 l 1,15,-1
 414 244 l 1,16,-1
 244 244 l 1,17,-1
 189 244 l 1,18,-1
 173 244 l 1,19,-1
 167 244 l 1,20,-1
 167 394 l 1,21,-1
 173 394 l 1,22,-1
 189 394 l 1,23,-1
 244 394 l 1,24,-1
 414 394 l 1,25,-1
 584 394 l 1,26,-1
 597 394 l 1,27,28
 597 396 597 396 597 458 c 0,29,30
 597 469 597 469 597 477 c 1,31,-1
 596 478 l 1,32,-1
 596 479 l 1,33,-1
 595 480 l 1,34,-1
 595 481 l 1,35,-1
 593 483 l 1,36,-1
 592 484 l 1,37,-1
 592 485 l 1,38,-1
 591 486 l 1,39,-1
 590 487 l 1,40,-1
 590 488 l 1,41,-1
 589 489 l 1,42,-1
 589 490 l 1,43,-1
 588 491 l 1,44,-1
 587 492 l 1,45,-1
 586 492 l 2,46,47
 502 492 502 492 402 492 c 128,-1,48
 302 492 302 492 219 492 c 0,49,50
 208 492 208 492 200 492 c 1,51,-1
 200 447 l 1,52,-1
 50 447 l 1,53,54
 50 503 50 503 50 560 c 2,55,-1
 50 561 l 1,56,-1
 50 562 l 1,57,-1
 52 562 l 1,58,-1
 135 644 l 1,59,-1
 136 642 l 1,60,-1
 142 642 l 1,61,-1
 159 642 l 2,62,63
 172 642 172 642 187.5 642 c 128,-1,64
 203 642 203 642 219 642 c 0,65,66
 302 642 302 642 402 642 c 128,-1,67
 502 642 502 642 585 642 c 0,68,69
 601 643 601 643 616.5 643 c 128,-1,70
 632 643 632 643 646 643 c 2,71,-1
 663 643 l 1,72,-1
 666 643 l 1,73,-1
 669 643 l 1,74,-1
 669 639 l 1,75,-1
 669 638 l 1,76,-1
 670 638 l 1,77,-1
 671 636 l 1,78,-1
 671 635 l 1,79,-1
 672 635 l 1,80,-1
 672 634 l 1,81,-1
 673 633 l 1,82,-1
 673 632 l 1,83,-1
 674 632 l 1,84,-1
 674 631 l 1,85,-1
 675 630 l 1,86,-1
 675 629 l 1,87,-1
 676 629 l 1,88,-1
 676 628 l 1,89,-1
 677 627 l 1,90,-1
 677 626 l 1,91,-1
 678 625 l 1,92,-1
 679 624 l 1,93,-1
 707 582 l 1,94,-1
 735 540 l 2,95,96
 741 532 741 532 745 527 c 0,97,98
 746 525 746 525 746 524 c 1,99,-1
 747 524 l 1,100,-1
 747 523 l 2,101,102
 748 522 748 522 748 521 c 1,103,-1
 747 521 l 1,104,-1
 747 520 l 1,105,-1
 747 506 l 2,106,107
 747 495 747 495 747 482.5 c 128,-1,108
 747 470 747 470 747 458 c 0,109,110
 747 391 747 391 747 311.5 c 128,-1,111
 747 232 747 232 747 165 c 0,112,113
 747 153 747 153 747 140.5 c 128,-1,114
 747 128 747 128 747 117 c 2,115,-1
 747 103 l 1,116,-1
 747 99 l 1,117,118
 746 99 746 99 746 99 c 1,119,-1
 745 99 l 1,120,121
 745 98 745 98 746 98 c 1,122,-1
 661 -11 l 1,123,-1
 660 -10 l 1,124,-1
 660 -11 l 1,125,-1
 654 -11 l 1,126,-1
 637 -11 l 1,127,-1
 577 -11 l 1,128,-1
 393 -11 l 1,129,-1
 210 -11 l 1,130,-1
 149 -11 l 1,131,-1
 132 -11 l 1,132,-1
 126 -11 l 1,133,-1
 49 70 l 1,134,-1
 50 71 l 1,135,-1
 50 76 l 1,136,-1
 50 89 l 2,137,138
 50 99 50 99 50 109.5 c 128,-1,139
 50 120 50 120 50 129.5 c 128,-1,140
 50 139 50 139 50 149.5 c 128,-1,141
 50 160 50 160 50 170 c 2,142,-1
 50 184 l 1,143,-1
 50 189 l 1,144,-1
 200 189 l 1,0,-1
EndSplineSet
EndChar

StartChar: four
Encoding: 52 52 8
Width: 769
VWidth: 1000
GlyphClass: 2
Flags: W
LayerCount: 2
Fore
SplineSet
178 240 m 0,0,1
 177 241 177 241 172 247 c 2,2,-1
 158 265 l 1,3,-1
 114 321 l 1,4,-1
 70 377 l 1,5,-1
 69 378 l 1,6,-1
 68 380 l 1,7,-1
 66 381 l 1,8,-1
 65 383 l 1,9,-1
 64 384 l 1,10,-1
 64 385 l 1,11,-1
 63 386 l 1,12,-1
 62 387 l 1,13,-1
 61 388 l 1,14,-1
 61 389 l 1,15,-1
 60 389 l 1,16,-1
 59 390 l 1,17,-1
 59 391 l 1,18,-1
 58 392 l 1,19,-1
 57 393 l 1,20,-1
 57 394 l 1,21,-1
 56 395 l 2,22,23
 51 401 51 401 50 402 c 1,24,25
 52 403 52 403 53 404 c 2,26,-1
 173 653 l 1,27,-1
 358 655 l 1,28,-1
 230 416 l 2,29,30
 231 415 231 415 232 414 c 2,31,-1
 251 390 l 1,32,33
 399 391 399 391 548 393 c 1,34,35
 549 521 549 521 549 649 c 1,36,-1
 699 648 l 1,37,-1
 694 -10 l 1,38,-1
 544 -9 l 1,39,40
 545 117 545 117 546 243 c 1,41,-1
 179 239 l 1,42,43
 179 240 179 240 179 241 c 1,44,45
 179 240 179 240 178 240 c 0,0,1
EndSplineSet
EndChar

StartChar: five
Encoding: 53 53 9
Width: 750
VWidth: 1000
GlyphClass: 2
Flags: W
LayerCount: 2
Fore
SplineSet
207 183 m 1,0,-1
 207 182 l 1,1,2
 207 182 207 182 207 180 c 128,-1,3
 207 178 207 178 207 175 c 0,4,5
 207 166 207 166 207 153 c 0,6,7
 207 150 207 150 207 143 c 0,8,9
 207 142 207 142 207 139 c 1,10,-1
 210 139 l 1,11,-1
 393 139 l 1,12,-1
 528 139 l 1,13,14
 528 144 528 144 528 147 c 0,15,16
 529 203 529 203 529 236 c 0,17,18
 527 238 527 238 525 240 c 2,19,-1
 496 240 l 1,20,-1
 352 240 l 1,21,-1
 208 240 l 1,22,-1
 160 240 l 1,23,-1
 147 240 l 1,24,-1
 145 240 l 1,25,26
 145 239 145 239 144 239 c 2,27,-1
 143 240 l 1,28,-1
 142 240 l 1,29,-1
 142 241 l 1,30,-1
 52 325 l 1,31,-1
 55 328 l 1,32,-1
 54 328 l 1,33,-1
 53 328 l 1,34,-1
 53 331 l 1,35,-1
 53 338 l 2,36,37
 53 344 53 344 53 351 c 128,-1,38
 53 358 53 358 53 365 c 2,39,-1
 53 447 l 2,40,41
 53 470 53 470 53 490.5 c 128,-1,42
 53 511 53 511 53 529 c 0,43,44
 53 536 53 536 53 544 c 0,45,46
 53 593 53 593 53 642 c 1,47,-1
 60 642 l 1,48,-1
 80 642 l 2,49,50
 95 642 95 642 113 642 c 128,-1,51
 131 642 131 642 150 642 c 0,52,53
 246 642 246 642 361 642 c 128,-1,54
 476 642 476 642 573 642 c 0,55,56
 591 643 591 643 609 643 c 128,-1,57
 627 643 627 643 642 643 c 2,58,-1
 662 643 l 1,59,-1
 669 643 l 1,60,-1
 669 493 l 1,61,-1
 662 493 l 1,62,-1
 642 493 l 2,63,64
 627 493 627 493 609 493 c 128,-1,65
 591 493 591 493 573 492 c 0,66,67
 477 492 477 492 361 492 c 0,68,69
 222 492 222 492 203 492 c 1,70,71
 203 458 203 458 203 447 c 0,72,73
 203 412 203 412 203 390 c 1,74,-1
 344 390 l 1,75,-1
 494 390 l 1,76,-1
 544 390 l 1,77,-1
 558 390 l 1,78,-1
 561 390 l 1,79,80
 561 391 561 391 562 391 c 1,81,-1
 562 390 l 1,82,-1
 677 302 l 2,83,84
 678 302 678 302 680 302 c 1,85,86
 680 301 680 301 680 300 c 2,87,-1
 680 299 l 2,88,89
 680 295 680 295 680 289 c 0,90,91
 680 274 680 274 679 253 c 2,92,-1
 678 146 l 2,93,94
 678 87 678 87 677 38 c 0,95,96
 677 17 677 17 677 3 c 0,97,98
 677 -3 677 -3 677 -7 c 2,99,-1
 677 -9 l 1,100,-1
 677 -11 l 1,101,102
 668 -11 668 -11 660 -10 c 1,103,-1
 660 -11 l 1,104,-1
 654 -11 l 1,105,-1
 637 -11 l 1,106,-1
 577 -11 l 1,107,-1
 393 -11 l 1,108,-1
 210 -11 l 1,109,-1
 206 -11 l 1,110,-1
 206 -12 l 1,111,-1
 41 -11 l 2,112,113
 41 -9 41 -9 41 -2 c 0,114,115
 41 7 41 7 41 20 c 0,116,117
 42 50 42 50 42 86.5 c 128,-1,118
 42 123 42 123 42 154 c 0,119,120
 42 167 42 167 42 176 c 0,121,122
 42 183 42 183 43 184 c 2,123,-1
 207 183 l 1,0,-1
EndSplineSet
EndChar

StartChar: six
Encoding: 54 54 10
Width: 750
VWidth: 1000
GlyphClass: 2
Flags: W
LayerCount: 2
Fore
SplineSet
529 236 m 1,0,-1
 525 240 l 1,1,-1
 496 240 l 1,2,-1
 352 240 l 1,3,-1
 208 240 l 1,4,-1
 202 240 l 1,5,6
 202 238 202 238 202 233 c 2,7,-1
 202 218 l 2,8,9
 202 183 202 183 202 139 c 1,10,-1
 210 139 l 1,11,-1
 393 139 l 1,12,-1
 528 139 l 1,13,14
 528 144 528 144 528 147 c 0,15,16
 529 205 529 205 529 236 c 1,0,-1
679 532 m 1,17,18
 679 531 679 531 679 530 c 128,-1,19
 679 529 679 529 679 527 c 0,20,21
 679 522 679 522 679 514 c 0,22,23
 680 496 680 496 680 475 c 128,-1,24
 680 454 680 454 681 436 c 0,25,26
 681 429 681 429 681 423 c 2,27,-1
 681 419 l 1,28,-1
 516 416 l 1,29,30
 516 417 516 417 516 421 c 0,31,32
 516 426 516 426 516 434 c 0,33,34
 515 451 515 451 515 473 c 0,35,36
 515 482 515 482 515 485 c 2,37,-1
 505 496 l 1,38,39
 497 496 497 496 486 496 c 0,40,41
 406 496 406 496 310 496 c 2,42,-1
 309 496 l 1,43,-1
 307 496 l 1,44,-1
 306 496 l 1,45,-1
 305 496 l 1,46,-1
 303 496 l 1,47,-1
 302 496 l 1,48,-1
 301 496 l 1,49,-1
 300 496 l 1,50,-1
 298 496 l 1,51,-1
 297 496 l 1,52,-1
 296 496 l 1,53,-1
 294 496 l 1,54,-1
 293 496 l 1,55,-1
 292 496 l 1,56,-1
 291 496 l 1,57,-1
 289 496 l 1,58,-1
 288 496 l 1,59,-1
 287 496 l 1,60,-1
 286 496 l 1,61,-1
 285 496 l 1,62,-1
 283 496 l 1,63,-1
 282 496 l 1,64,-1
 281 496 l 1,65,-1
 280 496 l 1,66,-1
 279 496 l 1,67,-1
 277 496 l 1,68,-1
 276 496 l 1,69,-1
 275 496 l 1,70,-1
 274 496 l 1,71,-1
 273 496 l 1,72,-1
 272 496 l 1,73,-1
 270 496 l 1,74,-1
 269 496 l 1,75,-1
 268 496 l 1,76,-1
 267 496 l 1,77,-1
 266 496 l 1,78,-1
 265 496 l 1,79,-1
 264 496 l 1,80,-1
 263 496 l 1,81,-1
 261 496 l 1,82,-1
 260 496 l 1,83,-1
 259 496 l 1,84,-1
 258 496 l 1,85,-1
 257 496 l 1,86,-1
 256 496 l 1,87,-1
 255 496 l 1,88,-1
 254 496 l 1,89,-1
 253 496 l 1,90,-1
 252 496 l 1,91,-1
 251 496 l 1,92,-1
 250 496 l 1,93,-1
 249 496 l 1,94,-1
 248 496 l 1,95,-1
 247 496 l 1,96,-1
 246 496 l 1,97,-1
 245 496 l 1,98,-1
 243 496 l 1,99,-1
 242 496 l 1,100,-1
 241 496 l 1,101,-1
 240 496 l 1,102,-1
 239 496 l 1,103,-1
 237 496 l 1,104,-1
 236 496 l 1,105,-1
 235 496 l 1,106,-1
 234 496 l 1,107,-1
 233 496 l 1,108,-1
 232 496 l 1,109,-1
 231 496 l 1,110,-1
 230 496 l 1,111,-1
 229 496 l 1,112,-1
 228 496 l 1,113,-1
 227 496 l 1,114,-1
 226 496 l 1,115,-1
 225 496 l 1,116,-1
 224 496 l 1,117,-1
 223 496 l 1,118,-1
 222 496 l 1,119,-1
 220 496 l 1,120,-1
 219 496 l 1,121,-1
 218 496 l 1,122,-1
 217 496 l 1,123,-1
 216 496 l 1,124,-1
 215 496 l 1,125,-1
 214 496 l 1,126,-1
 213 496 l 1,127,-1
 212 496 l 1,128,-1
 211 496 l 1,129,-1
 210 496 l 1,130,-1
 209 496 l 1,131,-1
 208 496 l 1,132,-1
 207 496 l 1,133,-1
 206 496 l 1,134,-1
 205 496 l 1,135,-1
 204 496 l 1,136,-1
 203 496 l 1,137,138
 203 480 203 480 203 447 c 0,139,140
 203 412 203 412 203 390 c 1,141,-1
 344 390 l 1,142,-1
 494 390 l 1,143,-1
 544 390 l 1,144,-1
 558 390 l 1,145,-1
 561 390 l 1,146,147
 561 391 561 391 562 391 c 1,148,-1
 562 390 l 1,149,-1
 677 302 l 2,150,151
 678 302 678 302 680 302 c 1,152,153
 680 301 680 301 680 300 c 2,154,-1
 680 299 l 2,155,156
 680 295 680 295 680 289 c 0,157,158
 680 274 680 274 679 253 c 2,159,-1
 678 146 l 2,160,161
 678 87 678 87 677 38 c 0,162,163
 677 17 677 17 677 3 c 0,164,165
 677 -3 677 -3 677 -7 c 0,166,167
 677 -9 677 -9 677 -10 c 2,168,-1
 677 -11 l 1,169,170
 668 -11 668 -11 660 -11 c 2,171,-1
 654 -11 l 1,172,-1
 637 -11 l 1,173,-1
 577 -11 l 1,174,-1
 393 -11 l 1,175,-1
 210 -11 l 1,176,-1
 149 -11 l 1,177,-1
 132 -11 l 1,178,-1
 126 -11 l 1,179,-1
 126 -10 l 1,180,-1
 125 -11 l 1,181,-1
 52 67 l 1,182,-1
 52 68 l 1,183,-1
 52 70 l 2,184,185
 52 72 52 72 52 74.5 c 128,-1,186
 52 77 52 77 52 80 c 0,187,188
 52 86 52 86 52 94.5 c 128,-1,189
 52 103 52 103 52 114 c 2,190,-1
 52 218 l 2,191,192
 53 275 53 275 53 322 c 2,193,-1
 53 323 l 1,194,-1
 53 324 l 1,195,196
 52 324 52 324 52 325 c 2,197,-1
 53 326 l 2,198,199
 53 329 53 329 53 332 c 2,200,-1
 53 338 l 2,201,202
 53 344 53 344 53 351 c 128,-1,203
 53 358 53 358 53 365 c 2,204,-1
 53 447 l 2,205,206
 53 492 53 492 53 529 c 0,207,208
 53 536 53 536 53 542 c 0,209,210
 53 594 53 594 53 646 c 1,211,-1
 59 646 l 1,212,-1
 75 646 l 2,213,214
 88 646 88 646 103 646 c 128,-1,215
 118 646 118 646 134 646 c 0,216,217
 214 646 214 646 310 646 c 128,-1,218
 406 646 406 646 486 646 c 0,219,220
 501 646 501 646 516 646 c 128,-1,221
 531 646 531 646 544 646 c 2,222,-1
 561 646 l 1,223,-1
 566 646 l 1,224,-1
 566 644 l 1,225,-1
 569 647 l 1,226,-1
 677 532 l 2,227,228
 678 532 678 532 679 532 c 1,17,18
EndSplineSet
EndChar

StartChar: seven
Encoding: 55 55 11
Width: 840
VWidth: 1000
GlyphClass: 2
Flags: W
LayerCount: 2
Fore
SplineSet
282 -10 m 1,0,-1
 282 -7 l 1,1,-1
 282 1 l 1,2,-1
 282 28 l 1,3,-1
 282 111 l 2,4,5
 282 135 282 135 282 155.5 c 128,-1,6
 282 176 282 176 282 194 c 2,7,-1
 282 222 l 1,8,-1
 282 229 l 1,9,-1
 282 230 l 1,10,-1
 282 232 l 1,11,-1
 284 232 l 1,12,-1
 535 480 l 1,13,14
 295 481 295 481 56 482 c 1,15,-1
 57 647 l 1,16,-1
 771 644 l 1,17,18
 770 563 770 563 770 481 c 2,19,-1
 770 479 l 1,20,-1
 769 479 l 1,21,-1
 447 161 l 1,22,23
 447 122 447 122 447 111 c 0,24,25
 447 91 447 91 447 69.5 c 128,-1,26
 447 48 447 48 447 28 c 2,27,-1
 447 0 l 1,28,-1
 447 -7 l 1,29,-1
 447 -10 l 1,30,-1
 282 -10 l 1,0,-1
EndSplineSet
EndChar

StartChar: eight
Encoding: 56 56 12
Width: 747
VWidth: 1000
GlyphClass: 2
Flags: W
LayerCount: 2
Fore
SplineSet
512 139 m 1,0,1
 512 143 512 143 512 152.5 c 128,-1,2
 512 162 512 162 512 166 c 128,-1,3
 512 170 512 170 512 180.5 c 128,-1,4
 512 191 512 191 512 196.5 c 128,-1,5
 512 202 512 202 512 216 c 128,-1,6
 512 230 512 230 512 240 c 1,7,-1
 496 240 l 1,8,-1
 352 240 l 1,9,-1
 208 240 l 1,10,-1
 202 240 l 1,11,12
 202 238 202 238 202 233 c 0,13,14
 202 231 202 231 202 218 c 0,15,16
 202 183 202 183 202 139 c 1,17,-1
 212 139 l 1,18,-1
 401 139 l 1,19,-1
 512 139 l 1,0,1
511 484 m 1,20,21
 505 491 505 491 500 496 c 1,22,23
 494 496 494 496 486 496 c 0,24,25
 406 496 406 496 310 496 c 0,26,27
 212 496 212 496 203 496 c 1,28,29
 203 480 203 480 203 447 c 0,30,31
 203 412 203 412 203 390 c 1,32,-1
 344 390 l 1,33,-1
 494 390 l 1,34,-1
 511 390 l 1,35,36
 511 396 511 396 511 409 c 0,37,38
 511 421 511 421 511 442 c 0,39,40
 511 465 511 465 511 484 c 1,20,21
676 -11 m 1,41,-1
 670 -11 l 1,42,-1
 653 -11 l 1,43,-1
 590 -11 l 1,44,-1
 401 -11 l 1,45,-1
 212 -11 l 1,46,-1
 150 -11 l 1,47,-1
 132 -11 l 1,48,-1
 126 -11 l 1,49,-1
 126 -10 l 1,50,-1
 125 -11 l 1,51,-1
 52 67 l 1,52,-1
 52 68 l 1,53,-1
 52 70 l 2,54,55
 52 72 52 72 52 74.5 c 128,-1,56
 52 77 52 77 52 80 c 0,57,58
 52 86 52 86 52 94.5 c 128,-1,59
 52 103 52 103 52 114 c 0,60,61
 52 162 52 162 52 218 c 2,62,-1
 53 322 l 1,63,-1
 53 323 l 1,64,-1
 53 324 l 1,65,66
 52 324 52 324 52 325 c 2,67,-1
 53 326 l 2,68,69
 53 329 53 329 53 332 c 2,70,-1
 53 338 l 2,71,72
 53 344 53 344 53 351 c 128,-1,73
 53 358 53 358 53 365 c 2,74,-1
 53 447 l 2,75,76
 53 492 53 492 53 529 c 0,77,78
 53 536 53 536 53 542 c 2,79,-1
 53 646 l 1,80,-1
 59 646 l 1,81,-1
 75 646 l 2,82,83
 88 646 88 646 103 646 c 128,-1,84
 118 646 118 646 134 646 c 0,85,86
 214 646 214 646 310 646 c 128,-1,87
 406 646 406 646 486 646 c 0,88,89
 501 646 501 646 516 646 c 128,-1,90
 531 646 531 646 544 646 c 2,91,-1
 561 646 l 1,92,-1
 563 646 l 1,93,-1
 564 647 l 1,94,95
 564 646 564 646 565 646 c 2,96,-1
 566 646 l 1,97,-1
 566 644 l 1,98,-1
 569 641 l 1,99,-1
 582 628 l 1,100,-1
 621 586 l 1,101,-1
 622 585 l 1,102,-1
 623 583 l 1,103,-1
 625 582 l 1,104,-1
 626 580 l 1,105,-1
 628 579 l 1,106,-1
 629 578 l 1,107,-1
 630 576 l 1,108,-1
 631 575 l 1,109,-1
 632 574 l 1,110,-1
 633 573 l 1,111,-1
 634 572 l 1,112,-1
 635 571 l 1,113,-1
 636 570 l 1,114,-1
 637 569 l 1,115,-1
 638 568 l 1,116,-1
 639 567 l 1,117,-1
 640 566 l 1,118,-1
 640 565 l 1,119,-1
 641 564 l 1,120,-1
 642 563 l 1,121,-1
 643 563 l 1,122,-1
 643 562 l 1,123,-1
 644 561 l 1,124,-1
 645 560 l 1,125,-1
 646 560 l 1,126,-1
 646 559 l 1,127,-1
 647 558 l 1,128,-1
 648 557 l 1,129,-1
 648 556 l 1,130,-1
 649 556 l 1,131,-1
 650 555 l 1,132,-1
 651 554 l 1,133,-1
 652 553 l 1,134,-1
 652 552 l 1,135,-1
 653 551 l 1,136,-1
 654 550 l 1,137,-1
 655 550 l 1,138,-1
 656 549 l 1,139,-1
 657 548 l 1,140,-1
 658 547 l 1,141,-1
 659 545 l 1,142,-1
 661 543 l 1,143,-1
 662 542 l 1,144,-1
 664 540 l 1,145,-1
 665 539 l 1,146,-1
 666 538 l 1,147,-1
 666 537 l 1,148,-1
 667 536 l 1,149,-1
 668 536 l 1,150,-1
 669 535 l 1,151,-1
 670 534 l 1,152,-1
 670 533 l 1,153,-1
 672 531 l 2,154,155
 676 527 676 527 677 526 c 0,156,157
 677 525 677 525 676 525 c 1,158,-1
 676 520 l 2,159,160
 676 516 676 516 676 511.5 c 128,-1,161
 676 507 676 507 676 503 c 0,162,163
 676 478 676 478 676 442 c 0,164,165
 677 359 677 359 677 258.5 c 128,-1,166
 677 158 677 158 677 75 c 0,167,168
 677 39 677 39 678 14 c 2,169,-1
 678 -3 l 1,170,-1
 678 -9 l 1,171,-1
 677 -9 l 1,172,-1
 676 -9 l 1,173,-1
 676 -11 l 1,41,-1
EndSplineSet
EndChar

StartChar: nine
Encoding: 57 57 13
Width: 818
VWidth: 1000
GlyphClass: 2
Flags: W
LayerCount: 2
Fore
SplineSet
200 492 m 1,0,1
 200 478 200 478 200 454 c 128,-1,2
 200 430 200 430 200 403 c 0,3,4
 200 401 200 401 200 398 c 128,-1,5
 200 395 200 395 200 394 c 1,6,-1
 244 394 l 1,7,-1
 414 394 l 1,8,-1
 584 394 l 1,9,-1
 597 394 l 1,10,11
 597 442 597 442 597 477 c 2,12,-1
 597 478 l 1,13,-1
 596 479 l 1,14,-1
 595 480 l 1,15,-1
 595 481 l 1,16,-1
 594 482 l 1,17,-1
 593 483 l 1,18,-1
 593 484 l 1,19,-1
 592 484 l 1,20,-1
 591 486 l 1,21,-1
 590 487 l 1,22,-1
 590 488 l 1,23,-1
 589 489 l 1,24,-1
 589 490 l 1,25,-1
 588 491 l 1,26,-1
 587 492 l 1,27,-1
 586 492 l 2,28,29
 502 492 502 492 402 492 c 128,-1,30
 302 492 302 492 219 492 c 0,31,32
 208 492 208 492 200 492 c 1,0,1
748 234 m 2,33,-1
 485 -7 l 1,34,-1
 263 -6 l 1,35,-1
 537 244 l 1,36,-1
 414 244 l 1,37,-1
 244 244 l 1,38,-1
 200 244 l 1,39,-1
 50 244 l 1,40,-1
 50 247 l 1,41,-1
 50 257 l 1,42,-1
 50 293 l 2,43,44
 50 321 50 321 50 349 c 128,-1,45
 50 377 50 377 50 403 c 128,-1,46
 50 429 50 429 50 457 c 128,-1,47
 50 485 50 485 50 512 c 2,48,-1
 50 548 l 1,49,-1
 50 558 l 1,50,-1
 50 560 l 1,51,-1
 50 562 l 1,52,-1
 52 562 l 1,53,-1
 135 644 l 1,54,-1
 136 642 l 1,55,-1
 142 642 l 1,56,-1
 159 642 l 2,57,58
 172 642 172 642 187.5 642 c 128,-1,59
 203 642 203 642 219 642 c 0,60,61
 302 642 302 642 402 642 c 128,-1,62
 502 642 502 642 585 642 c 0,63,64
 601 643 601 643 616.5 643 c 128,-1,65
 632 643 632 643 646 643 c 2,66,-1
 663 643 l 1,67,-1
 666 643 l 1,68,-1
 669 643 l 1,69,-1
 669 639 l 1,70,-1
 669 638 l 1,71,-1
 670 638 l 1,72,-1
 671 636 l 1,73,-1
 671 635 l 1,74,-1
 672 635 l 1,75,-1
 672 634 l 1,76,-1
 673 633 l 1,77,-1
 673 632 l 1,78,-1
 674 632 l 1,79,-1
 674 631 l 1,80,-1
 675 630 l 1,81,-1
 675 629 l 1,82,-1
 676 629 l 1,83,-1
 676 628 l 1,84,-1
 677 627 l 1,85,-1
 677 626 l 1,86,-1
 678 625 l 1,87,-1
 679 624 l 1,88,-1
 707 582 l 1,89,-1
 735 540 l 2,90,91
 741 532 741 532 745 527 c 2,92,-1
 746 524 l 1,93,-1
 747 524 l 1,94,-1
 747 523 l 2,95,96
 748 522 748 522 748 521 c 1,97,-1
 747 521 l 1,98,-1
 747 512 l 2,99,100
 747 505 747 505 747 496.5 c 128,-1,101
 747 488 747 488 747 479 c 0,102,103
 747 434 747 434 747 379.5 c 128,-1,104
 747 325 747 325 747 280 c 0,105,106
 747 271 747 271 747 262.5 c 128,-1,107
 747 254 747 254 747 247 c 2,108,-1
 747 238 l 1,109,-1
 747 236 l 2,110,111
 748 235 748 235 748 234 c 2,33,-1
EndSplineSet
EndChar

StartChar: A
Encoding: 65 65 14
Width: 818
VWidth: 1000
GlyphClass: 2
Flags: W
LayerCount: 2
Fore
SplineSet
500 175 m 5,0,-1
 150 175 l 1,1,-1
 150 0 l 1,2,-1
 0 0 l 1,3,-1
 0 225 l 1,4,-1
 273 640 l 1,5,-1
 675 640 l 5,6,-1
 750 490 l 5,7,-1
 750 0 l 5,8,-1
 600 0 l 5,9,-1
 600 90 l 29,10,-1
 500 175 l 5,0,-1
600 252 m 5,11,-1
 600 490 l 5,12,-1
 350 490 l 1,13,-1
 240 325 l 1,14,-1
 512 325 l 21,15,-1
 600 252 l 5,11,-1
EndSplineSet
EndChar

StartChar: B
Encoding: 66 66 15
Width: 824
VWidth: 1000
GlyphClass: 2
Flags: W
LayerCount: 2
Fore
SplineSet
452 390 m 1,0,-1
 525 490 l 1,1,-1
 150 492 l 1,2,-1
 150 390 l 5,3,-1
 452 390 l 1,0,-1
452 250 m 1,4,-1
 150 250 l 1,5,-1
 150 150 l 1,6,-1
 525 150 l 1,7,-1
 452 250 l 1,4,-1
700 0 m 1,8,-1
 0 0 l 1,9,-1
 0 640 l 1,10,-1
 700 640 l 1,11,-1
 700 490 l 1,12,-1
 575 320 l 1,13,-1
 700 150 l 1,14,-1
 700 0 l 1,8,-1
EndSplineSet
EndChar

StartChar: C
Encoding: 67 67 16
Width: 821
VWidth: 1000
GlyphClass: 2
Flags: W
LayerCount: 2
Fore
SplineSet
700 0 m 1,0,-1
 225 0 l 1,1,-1
 0 225 l 1,2,-1
 0 640 l 1,3,-1
 600 640 l 1,4,-1
 700 540 l 1,5,-1
 575 440 l 1,6,-1
 525 490 l 5,7,-1
 150 490 l 1,8,-1
 150 300 l 1,9,-1
 300 150 l 1,10,-1
 700 150 l 1,11,-1
 700 0 l 1,0,-1
EndSplineSet
EndChar

StartChar: D
Encoding: 68 68 17
Width: 831
VWidth: 1000
GlyphClass: 2
Flags: W
LayerCount: 2
Fore
SplineSet
525 490 m 1,0,1
 150 490 l 1,2,-1
 150 150 l 1,3,-1
 265 150 l 1,4,-1
 525 490 l 1,0,1
325 0 m 1,5,-1
 0 0 l 1,6,-1
 0 640 l 1,7,-1
 700 640 l 1,8,-1
 700 490 l 25,9,-1
 325 0 l 1,5,-1
EndSplineSet
EndChar

StartChar: E
Encoding: 69 69 18
Width: 772
VWidth: 1000
GlyphClass: 2
Flags: W
LayerCount: 2
Fore
SplineSet
500 250 m 1,0,-1
 150 250 l 1,1,2
 150 150 l 1,3,-1
 525 150 l 1,4,-1
 574 201 l 1,5,-1
 700 109 l 1,6,-1
 608 0 l 1,7,-1
 0 0 l 1,8,-1
 0 640 l 1,9,-1
 613 640 l 29,10,-1
 700 525 l 1,11,-1
 575 440 l 1,12,-1
 525 490 l 1,13,-1
 150 490 l 1,14,-1
 150 390 l 1,15,-1
 500 390 l 1,16,-1
 500 250 l 1,0,-1
EndSplineSet
EndChar

StartChar: F
Encoding: 70 70 19
Width: 829
VWidth: 1000
GlyphClass: 2
Flags: W
LayerCount: 2
Fore
SplineSet
533 389 m 1,0,-1
 536 385 l 2,1,2
 539 380 539 380 544 373 c 2,3,-1
 545 372 l 1,4,-1
 546 371 l 1,5,-1
 547 369 l 1,6,-1
 548 368 l 1,7,-1
 549 367 l 1,8,-1
 549 366 l 1,9,-1
 550 365 l 1,10,-1
 551 364 l 1,11,-1
 551 363 l 1,12,-1
 552 362 l 1,13,-1
 553 361 l 1,14,-1
 554 360 l 1,15,-1
 554 359 l 1,16,-1
 555 358 l 1,17,-1
 556 357 l 1,18,-1
 556 356 l 1,19,-1
 557 356 l 1,20,-1
 557 355 l 1,21,-1
 558 354 l 1,22,-1
 558 353 l 1,23,-1
 559 353 l 1,24,-1
 559 352 l 1,25,-1
 560 351 l 1,26,-1
 561 350 l 1,27,-1
 561 349 l 1,28,-1
 562 348 l 1,29,-1
 562 347 l 1,30,-1
 563 347 l 1,31,-1
 564 346 l 1,32,-1
 564 345 l 1,33,-1
 565 344 l 1,34,-1
 566 343 l 1,35,-1
 566 342 l 1,36,-1
 567 341 l 1,37,-1
 568 340 l 1,38,-1
 568 339 l 1,39,-1
 570 337 l 1,40,-1
 595 302 l 1,41,-1
 596 300 l 1,42,-1
 597 299 l 1,43,-1
 598 297 l 1,44,-1
 599 296 l 1,45,-1
 599 295 l 1,46,-1
 600 295 l 1,47,-1
 600 294 l 1,48,-1
 601 293 l 1,49,-1
 602 292 l 1,50,-1
 602 291 l 1,51,-1
 603 290 l 2,52,53
 606 286 606 286 606 285 c 2,54,-1
 484 199 l 2,55,56
 483 200 483 200 481 203 c 0,57,58
 477 208 477 208 472 215 c 2,59,-1
 456 239 l 1,60,-1
 300 239 l 1,61,-1
 203 239 l 1,62,63
 203 170 203 170 203 80 c 0,64,65
 203 63 203 63 203 46 c 128,-1,66
 203 29 203 29 203 14 c 2,67,-1
 203 -4 l 1,68,-1
 203 -10 l 1,69,-1
 53 -10 l 1,70,-1
 53 -4 l 1,71,-1
 53 14 l 2,72,73
 53 29 53 29 53 46 c 128,-1,74
 53 63 53 63 53 80 c 0,75,76
 53 170 53 170 53 278 c 0,77,78
 53 334 53 334 53 383.5 c 128,-1,79
 53 433 53 433 53 476 c 0,80,81
 53 480 53 480 53 520 c 2,82,-1
 53 642 l 1,83,-1
 60 642 l 1,84,-1
 80 642 l 2,85,86
 95 642 95 642 113 642 c 128,-1,87
 131 642 131 642 150 642 c 0,88,89
 246 642 246 642 361 642 c 128,-1,90
 476 642 476 642 573 642 c 0,91,92
 591 643 591 643 609 643 c 128,-1,93
 627 643 627 643 642 643 c 2,94,-1
 662 643 l 1,95,-1
 669 643 l 1,96,-1
 669 640 l 2,97,98
 670 638 670 638 672 635 c 0,99,100
 676 629 676 629 682 620 c 2,101,-1
 714 573 l 1,102,-1
 745 526 l 2,103,104
 752 517 752 517 756 510 c 0,105,106
 759 506 759 506 760 504 c 2,107,-1
 635 421 l 1,108,109
 635 422 635 422 631 427 c 2,110,-1
 621 442 l 1,111,-1
 589 489 l 2,112,113
 588 491 588 491 587 493 c 0,114,115
 581 493 581 493 573 492 c 0,116,117
 477 492 477 492 361 492 c 0,118,119
 271 492 271 492 203 492 c 1,120,121
 203 485 203 485 203 476 c 0,122,123
 203 434 203 434 203 389 c 1,124,-1
 300 389 l 1,125,-1
 460 389 l 1,126,-1
 513 389 l 1,127,-1
 527 389 l 1,128,-1
 532 389 l 1,129,-1
 533 389 l 1,0,-1
EndSplineSet
EndChar

StartChar: G
Encoding: 71 71 20
Width: 824
VWidth: 1000
GlyphClass: 2
Flags: W
LayerCount: 2
Fore
SplineSet
754 150 m 1,0,-1
 754 143 l 2,1,2
 754 135 754 135 754 124 c 0,3,4
 754 99 754 99 754.5 68.5 c 128,-1,5
 755 38 755 38 755 12 c 0,6,7
 755 2 755 2 755 -6 c 0,8,9
 755 -12 755 -12 755 -13 c 2,10,-1
 617 -14 l 2,11,12
 614 -14 614 -14 609 -14 c 0,13,14
 598 -14 598 -14 583.5 -14 c 128,-1,15
 569 -14 569 -14 550 -14 c 2,16,-1
 371 -16 l 1,17,-1
 191 -17 l 2,18,19
 152 -18 152 -18 141 -18 c 2,20,-1
 -9 -18 l 1,21,-1
 -9 -16 l 1,22,-1
 -9 -8 l 1,23,-1
 -9 20 l 1,24,-1
 -9 105 l 1,25,-1
 -9 190 l 1,26,-1
 -9 218 l 1,27,-1
 -9 226 l 1,28,-1
 -9 228 l 1,29,-1
 -6 228 l 1,30,-1
 -6 229 l 1,31,-1
 -4 231 l 1,32,-1
 5 244 l 1,33,-1
 36 290 l 1,34,-1
 133 432 l 1,35,-1
 229 573 l 1,36,-1
 261 619 l 2,37,38
 266 627 266 627 270 632 c 0,39,40
 272 636 272 636 273 637 c 2,41,-1
 273 638 l 2,42,43
 273 639 273 639 273 640 c 1,44,-1
 278 640 l 2,45,46
 281 640 281 640 285 640 c 128,-1,47
 289 640 289 640 293 640 c 0,48,49
 314 640 314 640 345 640 c 0,50,51
 417 640 417 640 504 640 c 128,-1,52
 591 640 591 640 663 640 c 0,53,54
 694 641 694 641 715 641 c 2,55,-1
 730 641 l 1,56,-1
 735 641 l 1,57,-1
 736 491 l 1,58,-1
 730 491 l 2,59,60
 728 491 728 491 726.5 491 c 128,-1,61
 725 491 725 491 722 491 c 128,-1,62
 719 491 719 491 716 491 c 0,63,64
 694 491 694 491 663 490 c 0,65,66
 591 490 591 490 504 490 c 0,67,68
 408 490 408 490 354 490 c 1,69,70
 354 489 354 489 353 488 c 2,71,-1
 257 347 l 1,72,-1
 160 206 l 1,73,-1
 141 178 l 1,74,-1
 141 132 l 1,75,-1
 142 132 l 1,76,-1
 143 132 l 1,77,-1
 144 132 l 1,78,-1
 145 132 l 1,79,-1
 146 132 l 1,80,-1
 148 132 l 1,81,-1
 149 132 l 1,82,-1
 150 132 l 1,83,-1
 151 132 l 1,84,-1
 152 132 l 1,85,-1
 153 132 l 1,86,-1
 154 132 l 1,87,-1
 155 132 l 1,88,-1
 156 132 l 1,89,-1
 157 133 l 1,90,-1
 158 133 l 1,91,-1
 159 133 l 1,92,-1
 160 133 l 1,93,-1
 161 133 l 1,94,-1
 162 133 l 1,95,-1
 163 133 l 1,96,-1
 164 133 l 1,97,-1
 165 133 l 1,98,-1
 166 133 l 1,99,-1
 167 133 l 1,100,-1
 168 133 l 1,101,-1
 169 133 l 1,102,-1
 170 133 l 1,103,-1
 171 133 l 1,104,-1
 172 133 l 1,105,-1
 173 133 l 1,106,-1
 174 133 l 1,107,-1
 175 133 l 1,108,-1
 176 133 l 1,109,-1
 177 133 l 1,110,-1
 178 133 l 1,111,-1
 179 133 l 1,112,-1
 180 133 l 1,113,-1
 181 133 l 1,114,-1
 182 133 l 1,115,-1
 183 133 l 1,116,-1
 184 133 l 1,117,-1
 185 133 l 1,118,-1
 186 133 l 1,119,-1
 187 133 l 1,120,-1
 188 133 l 1,121,-1
 189 133 l 1,122,-1
 190 133 l 2,123,124
 272 133 272 133 369.5 134 c 128,-1,125
 467 135 467 135 549 136 c 0,126,127
 577 136 577 136 586 136 c 1,128,-1
 586 137 l 1,129,-1
 585 138 l 1,130,-1
 585 140 l 1,131,-1
 584 141 l 1,132,-1
 584 142 l 1,133,-1
 584 143 l 1,134,-1
 583 144 l 1,135,-1
 583 145 l 1,136,-1
 582 146 l 1,137,-1
 582 147 l 1,138,-1
 581 148 l 1,139,-1
 581 149 l 1,140,-1
 581 150 l 1,141,-1
 580 151 l 1,142,-1
 580 152 l 1,143,-1
 579 153 l 1,144,-1
 579 154 l 1,145,-1
 579 155 l 1,146,-1
 578 156 l 1,147,-1
 578 157 l 1,148,-1
 577 158 l 1,149,-1
 577 159 l 1,150,-1
 577 160 l 1,151,-1
 576 161 l 1,152,-1
 576 162 l 1,153,-1
 575 163 l 1,154,-1
 575 164 l 1,155,-1
 575 165 l 1,156,-1
 574 165 l 1,157,-1
 574 166 l 1,158,-1
 574 167 l 1,159,-1
 573 168 l 1,160,-1
 573 169 l 1,161,-1
 573 170 l 1,162,-1
 572 171 l 1,163,-1
 572 172 l 1,164,-1
 571 173 l 1,165,-1
 571 174 l 1,166,-1
 570 175 l 1,167,-1
 570 176 l 1,168,-1
 570 177 l 1,169,-1
 569 177 l 1,170,-1
 569 178 l 1,171,-1
 569 179 l 1,172,-1
 568 180 l 1,173,-1
 568 181 l 1,174,-1
 568 182 l 1,175,-1
 567 183 l 1,176,-1
 567 184 l 1,177,-1
 567 185 l 1,178,-1
 566 185 l 1,179,-1
 566 186 l 1,180,-1
 566 187 l 1,181,-1
 565 188 l 1,182,-1
 565 189 l 1,183,-1
 564 190 l 1,184,-1
 564 191 l 1,185,-1
 563 192 l 1,186,-1
 563 193 l 1,187,-1
 563 194 l 1,188,-1
 562 195 l 1,189,-1
 562 196 l 1,190,-1
 562 197 l 1,191,-1
 561 198 l 1,192,-1
 561 199 l 1,193,-1
 560 200 l 1,194,-1
 560 201 l 1,195,-1
 559 202 l 1,196,-1
 559 203 l 1,197,-1
 558 204 l 1,198,-1
 558 206 l 1,199,-1
 557 207 l 1,200,-1
 557 208 l 1,201,-1
 556 209 l 1,202,-1
 556 210 l 1,203,-1
 556 211 l 1,204,-1
 555 212 l 1,205,-1
 555 213 l 1,206,-1
 554 214 l 1,207,-1
 554 215 l 1,208,-1
 553 217 l 1,209,-1
 553 218 l 1,210,-1
 552 219 l 1,211,-1
 552 221 l 1,212,-1
 551 222 l 1,213,-1
 551 223 l 1,214,-1
 550 224 l 1,215,-1
 550 226 l 1,216,-1
 549 227 l 1,217,-1
 549 228 l 1,218,-1
 548 229 l 1,219,-1
 548 231 l 1,220,-1
 547 232 l 1,221,-1
 547 233 l 1,222,-1
 546 234 l 1,223,-1
 546 235 l 1,224,-1
 545 236 l 1,225,-1
 545 238 l 1,226,-1
 544 239 l 1,227,-1
 544 240 l 1,228,-1
 544 241 l 1,229,-1
 543 242 l 1,230,-1
 543 243 l 1,231,-1
 542 244 l 1,232,-1
 542 245 l 1,233,-1
 541 246 l 1,234,-1
 541 247 l 1,235,-1
 540 249 l 1,236,237
 534 249 534 249 531 249 c 0,238,239
 485 249 485 249 448 248 c 0,240,241
 432 248 432 248 421 248 c 0,242,243
 418 248 418 248 416.5 248 c 128,-1,244
 415 248 415 248 413 248 c 2,245,-1
 410 248 l 1,246,-1
 410 398 l 1,247,-1
 412 398 l 2,248,249
 414 398 414 398 416 398 c 128,-1,250
 418 398 418 398 420 398 c 0,251,252
 431 398 431 398 447 398 c 0,253,254
 485 399 485 399 530 399 c 128,-1,255
 575 399 575 399 613 399 c 0,256,257
 629 399 629 399 640 399 c 0,258,259
 642 399 642 399 644 399 c 128,-1,260
 646 399 646 399 648 399 c 2,261,-1
 651 399 l 1,262,-1
 652 396 l 2,263,264
 653 393 653 393 655 388 c 0,265,266
 660 377 660 377 667 360 c 2,267,-1
 702 274 l 1,268,-1
 737 188 l 1,269,-1
 748 160 l 2,270,271
 750 155 750 155 752 152 c 2,272,-1
 752 150 l 1,273,-1
 753 150 l 1,274,-1
 754 150 l 1,0,-1
EndSplineSet
EndChar

StartChar: H
Encoding: 72 72 21
Width: 794
VWidth: 1000
GlyphClass: 2
Flags: W
LayerCount: 2
Fore
SplineSet
724 658 m 1,0,-1
 724 650 l 1,1,-1
 724 629 l 2,2,3
 724 613 724 613 724 593.5 c 128,-1,4
 724 574 724 574 724 555 c 0,5,6
 724 453 724 453 724 330 c 128,-1,7
 724 207 724 207 724 104 c 0,8,9
 724 85 724 85 724 66 c 128,-1,10
 724 47 724 47 724 30 c 2,11,-1
 724 9 l 1,12,-1
 724 2 l 1,13,-1
 574 2 l 1,14,-1
 574 9 l 1,15,-1
 574 30 l 2,16,17
 574 47 574 47 574 66 c 128,-1,18
 574 85 574 85 574 104 c 0,19,20
 574 142 574 142 574 188 c 2,21,-1
 574 248 l 1,22,-1
 573 248 l 1,23,-1
 572 248 l 1,24,-1
 571 248 l 1,25,-1
 570 248 l 1,26,-1
 569 248 l 1,27,-1
 568 248 l 1,28,-1
 567 248 l 1,29,-1
 566 248 l 1,30,-1
 565 248 l 1,31,-1
 564 248 l 1,32,-1
 563 248 l 1,33,-1
 562 248 l 1,34,-1
 561 248 l 1,35,-1
 560 248 l 1,36,-1
 559 248 l 1,37,-1
 558 248 l 1,38,-1
 557 248 l 1,39,-1
 556 248 l 1,40,-1
 555 248 l 1,41,-1
 554 247 l 1,42,-1
 553 247 l 1,43,-1
 552 247 l 1,44,-1
 551 247 l 1,45,-1
 550 247 l 1,46,-1
 549 247 l 1,47,-1
 548 247 l 1,48,-1
 547 247 l 1,49,-1
 546 247 l 1,50,-1
 545 247 l 1,51,-1
 544 247 l 1,52,-1
 543 247 l 1,53,-1
 542 247 l 1,54,-1
 541 247 l 1,55,-1
 540 247 l 1,56,-1
 538 247 l 1,57,-1
 537 247 l 1,58,-1
 536 247 l 1,59,-1
 535 247 l 1,60,-1
 534 247 l 1,61,-1
 533 247 l 1,62,-1
 532 247 l 1,63,-1
 531 247 l 1,64,-1
 530 247 l 1,65,-1
 529 247 l 1,66,-1
 528 247 l 1,67,-1
 527 247 l 1,68,-1
 526 247 l 1,69,-1
 525 247 l 1,70,-1
 524 247 l 1,71,-1
 523 247 l 1,72,-1
 522 247 l 1,73,-1
 521 247 l 1,74,-1
 520 247 l 1,75,-1
 519 247 l 1,76,-1
 518 247 l 1,77,-1
 517 247 l 1,78,-1
 516 247 l 1,79,-1
 515 247 l 1,80,-1
 514 247 l 1,81,-1
 513 247 l 1,82,-1
 512 247 l 1,83,-1
 511 247 l 1,84,-1
 510 247 l 1,85,-1
 509 247 l 1,86,-1
 508 247 l 1,87,-1
 507 247 l 1,88,-1
 506 247 l 1,89,-1
 505 247 l 1,90,-1
 504 247 l 1,91,-1
 503 247 l 1,92,-1
 502 247 l 1,93,-1
 501 247 l 1,94,-1
 500 247 l 1,95,-1
 499 247 l 1,96,-1
 498 247 l 1,97,-1
 497 247 l 1,98,-1
 496 247 l 1,99,-1
 495 247 l 1,100,-1
 493 247 l 2,101,102
 406 246 406 246 334 245 c 0,103,104
 329 245 329 245 327 245 c 2,105,-1
 274 189 l 1,106,-1
 208 119 l 1,107,-1
 204 115 l 2,108,109
 204 112 204 112 204 107 c 128,-1,110
 204 102 204 102 204 99 c 0,111,112
 204 79 204 79 204 60 c 128,-1,113
 204 41 204 41 204 24 c 2,114,-1
 204 4 l 1,115,-1
 204 -4 l 1,116,-1
 54 -4 l 1,117,-1
 54 4 l 1,118,-1
 54 24 l 2,119,120
 54 41 54 41 54 60 c 128,-1,121
 54 79 54 79 54 99 c 0,122,123
 54 201 54 201 54 324 c 128,-1,124
 54 447 54 447 54 549 c 0,125,126
 54 569 54 569 54 588 c 128,-1,127
 54 607 54 607 54 623 c 2,128,-1
 54 644 l 1,129,-1
 54 652 l 1,130,-1
 204 652 l 1,131,-1
 204 644 l 1,132,-1
 204 624 l 2,133,134
 204 607 204 607 204 588 c 128,-1,135
 204 569 204 569 204 549 c 0,136,137
 204 513 204 513 204 478 c 128,-1,138
 204 443 204 443 204 413.5 c 128,-1,139
 204 384 204 384 204 333 c 1,140,-1
 231 361 l 1,141,-1
 232 363 l 1,142,-1
 234 365 l 1,143,-1
 235 366 l 1,144,-1
 236 368 l 1,145,-1
 238 369 l 1,146,-1
 239 370 l 1,147,-1
 240 371 l 1,148,-1
 241 372 l 1,149,-1
 242 373 l 1,150,-1
 242 374 l 1,151,-1
 243 375 l 1,152,-1
 244 376 l 1,153,-1
 245 377 l 1,154,-1
 246 377 l 1,155,-1
 246 378 l 1,156,-1
 247 379 l 1,157,-1
 248 380 l 1,158,-1
 249 381 l 1,159,-1
 250 382 l 1,160,-1
 250 383 l 1,161,-1
 252 384 l 2,162,163
 256 388 256 388 258 391 c 0,164,165
 260 392 260 392 260 393 c 2,166,-1
 260 395 l 1,167,168
 261 395 261 395 265 395 c 0,169,170
 271 395 271 395 280 395 c 0,171,172
 302 395 302 395 332 395 c 0,173,174
 405 396 405 396 491 397 c 0,175,176
 548 397 548 397 574 398 c 1,177,178
 574 499 574 499 574 555 c 0,179,180
 574 574 574 574 574 593.5 c 128,-1,181
 574 613 574 613 574 629 c 2,182,-1
 574 650 l 1,183,-1
 574 657 l 1,184,-1
 724 658 l 1,0,-1
EndSplineSet
EndChar

StartChar: I
Encoding: 73 73 22
Width: 281
VWidth: 1000
GlyphClass: 2
Flags: W
LayerCount: 2
Fore
SplineSet
52 21 m 1,0,-1
 51 574 l 1,1,-1
 210 649 l 1,2,-1
 211 -5 l 1,3,-1
 52 21 l 1,0,-1
EndSplineSet
EndChar

StartChar: J
Encoding: 74 74 23
Width: 752
VWidth: 1000
GlyphClass: 2
Flags: W
LayerCount: 2
Fore
SplineSet
682 619 m 1,0,-1
 682 612 l 1,1,-1
 682 592 l 2,2,3
 682 579 682 579 682 561.5 c 128,-1,4
 682 544 682 544 682 522 c 0,5,6
 682 425 682 425 682 309 c 0,7,8
 682 167 682 167 682 150 c 2,9,-1
 682 0 l 1,10,-1
 681 0 l 1,11,-1
 620 0 l 1,12,-1
 597 0 l 1,13,-1
 409 0 l 1,14,-1
 222 0 l 1,15,-1
 160 0 l 1,16,-1
 143 0 l 1,17,-1
 137 0 l 1,18,-1
 137 3 l 1,19,20
 134 2 134 2 132 0 c 1,21,22
 131 1 131 1 129 6 c 2,23,-1
 119 19 l 1,24,-1
 91 61 l 1,25,-1
 63 103 l 1,26,-1
 62 104 l 1,27,-1
 61 106 l 1,28,-1
 60 107 l 1,29,-1
 59 108 l 1,30,-1
 58 109 l 1,31,-1
 58 110 l 1,32,-1
 57 111 l 1,33,-1
 57 112 l 1,34,-1
 56 113 l 1,35,-1
 55 114 l 1,36,-1
 55 115 l 1,37,-1
 54 116 l 1,38,-1
 52 119 l 1,39,-1
 51 120 l 1,40,-1
 50 122 l 1,41,-1
 174 206 l 2,42,43
 175 205 175 205 178 200 c 2,44,-1
 179 199 l 1,45,-1
 179 198 l 1,46,-1
 180 197 l 1,47,-1
 181 196 l 1,48,-1
 181 195 l 1,49,-1
 182 194 l 1,50,-1
 183 193 l 1,51,-1
 183 192 l 1,52,-1
 184 192 l 1,53,-1
 184 191 l 1,54,-1
 185 190 l 1,55,-1
 186 189 l 1,56,-1
 186 188 l 1,57,-1
 187 187 l 1,58,-1
 212 150 l 1,59,-1
 222 150 l 1,60,-1
 409 150 l 1,61,-1
 532 150 l 1,62,63
 532 213 532 213 532 310 c 0,64,65
 532 471 532 471 532 497 c 1,66,-1
 463 497 l 1,67,-1
 489 644 l 1,68,-1
 682 647 l 1,69,-1
 682 619 l 1,0,-1
EndSplineSet
EndChar

StartChar: K
Encoding: 75 75 24
Width: 822
VWidth: 1000
GlyphClass: 2
Flags: W
LayerCount: 2
Fore
SplineSet
365 -5 m 1,0,-1
 210 234 l 1,1,-1
 210 -4 l 1,2,-1
 50 -4 l 1,3,-1
 50 654 l 1,4,-1
 210 654 l 1,5,-1
 210 529 l 1,6,-1
 335 336 l 1,7,-1
 591 539 l 1,8,-1
 591 652 l 1,9,-1
 751 652 l 1,10,-1
 751 464 l 2,11,12
 751 463 751 463 752 462 c 1,13,14
 751 462 751 462 751 461 c 2,15,-1
 422 201 l 1,16,-1
 453 153 l 1,17,-1
 749 152 l 1,18,-1
 715 -9 l 1,19,-1
 368 -6 l 2,20,21
 367 -7 367 -7 366 -7 c 1,22,-1
 366 -6 l 1,23,-1
 365 -6 l 1,24,-1
 365 -5 l 1,0,-1
EndSplineSet
EndChar

StartChar: L
Encoding: 76 76 25
Width: 816
VWidth: 1000
GlyphClass: 2
Flags: W
LayerCount: 2
Fore
SplineSet
746 141 m 1,0,-1
 635 -5 l 1,1,-1
 634 -5 l 1,2,-1
 206 -5 l 1,3,-1
 206 -6 l 1,4,-1
 152 -5 l 1,5,-1
 118 -5 l 1,6,-1
 46 -5 l 1,7,-1
 50 652 l 1,8,-1
 210 651 l 1,9,10
 208 403 208 403 207 155 c 1,11,-1
 556 155 l 1,12,-1
 619 238 l 1,13,-1
 746 141 l 1,0,-1
EndSplineSet
EndChar

StartChar: M
Encoding: 77 77 26
Width: 821
VWidth: 1000
GlyphClass: 2
Flags: W
LayerCount: 2
Fore
SplineSet
752 651 m 1,0,-1
 752 644 l 1,1,-1
 752 623 l 2,2,3
 752 606 752 606 752 587 c 128,-1,4
 752 568 752 568 752 548 c 0,5,6
 751 446 751 446 751 322.5 c 128,-1,7
 751 199 751 199 751 96 c 0,8,9
 751 77 751 77 751 58 c 128,-1,10
 751 39 751 39 751 22 c 2,11,-1
 751 1 l 1,12,-1
 751 -6 l 1,13,-1
 601 -6 l 1,14,-1
 601 1 l 1,15,-1
 601 22 l 2,16,17
 601 39 601 39 601 58 c 128,-1,18
 601 77 601 77 601 97 c 0,19,20
 601 199 601 199 601 323 c 0,21,22
 601 371 601 371 601 425 c 0,23,24
 601 427 601 427 601 497 c 1,25,-1
 523 434 l 1,26,-1
 472 394 l 1,27,28
 472 377 472 377 472 365 c 0,29,30
 472 295 472 295 472 211.5 c 128,-1,31
 472 128 472 128 472 59 c 0,32,33
 472 46 472 46 472 33 c 128,-1,34
 472 20 472 20 472 9 c 2,35,-1
 472 -5 l 1,36,-1
 472 -10 l 1,37,-1
 322 -10 l 1,38,-1
 322 -5 l 1,39,-1
 322 9 l 2,40,41
 322 20 322 20 322 33 c 128,-1,42
 322 46 322 46 322 59 c 0,43,44
 322 129 322 129 322 212 c 128,-1,45
 322 295 322 295 322 365 c 0,46,47
 322 378 322 378 322 390 c 1,48,-1
 264 439 l 1,49,-1
 203 491 l 1,50,51
 203 441 203 441 203 325 c 0,52,53
 203 201 203 201 203 98 c 0,54,55
 203 79 203 79 203 59.5 c 128,-1,56
 203 40 203 40 203 24 c 2,57,-1
 203 3 l 1,58,-1
 203 -5 l 1,59,-1
 53 -4 l 1,60,-1
 53 3 l 1,61,-1
 53 24 l 2,62,63
 53 40 53 40 53 59.5 c 128,-1,64
 53 79 53 79 53 98 c 0,65,66
 53 201 53 201 53 325 c 2,67,-1
 53 551 l 2,68,69
 53 571 53 571 53 590 c 128,-1,70
 53 609 53 609 53 626 c 2,71,-1
 53 647 l 1,72,-1
 53 654 l 1,73,-1
 158 654 l 2,74,75
 159 654 159 654 185 654 c 0,76,77
 206 654 206 654 223 654 c 0,78,79
 230 655 230 655 236 655 c 0,80,81
 239 655 239 655 240 655 c 2,82,-1
 241 656 l 1,83,84
 242 655 242 655 244 653 c 0,85,86
 247 651 247 651 252 647 c 2,87,-1
 279 624 l 1,88,-1
 361 553 l 2,89,90
 378 539 378 539 395 524 c 1,91,-1
 430 552 l 1,92,-1
 517 621 l 1,93,-1
 519 622 l 1,94,-1
 520 624 l 1,95,-1
 522 625 l 1,96,-1
 523 626 l 1,97,-1
 525 627 l 1,98,-1
 526 628 l 1,99,-1
 527 629 l 1,100,-1
 529 630 l 1,101,-1
 530 631 l 1,102,-1
 531 632 l 1,103,-1
 532 633 l 1,104,-1
 533 633 l 1,105,-1
 533 634 l 1,106,-1
 534 635 l 1,107,-1
 535 635 l 1,108,-1
 536 636 l 1,109,-1
 537 637 l 1,110,-1
 538 637 l 1,111,-1
 538 638 l 1,112,-1
 539 639 l 1,113,-1
 540 639 l 1,114,-1
 541 640 l 1,115,-1
 542 641 l 1,116,-1
 543 641 l 1,117,-1
 544 642 l 1,118,-1
 545 643 l 1,119,-1
 546 644 l 1,120,-1
 547 645 l 1,121,-1
 549 646 l 1,122,-1
 550 647 l 1,123,-1
 551 648 l 1,124,-1
 552 648 l 1,125,-1
 552 649 l 1,126,-1
 554 650 l 2,127,128
 554 651 554 651 556 652 c 2,129,-1
 556 653 l 1,130,131
 558 653 558 653 565 653 c 0,132,133
 574 653 574 653 587 653 c 0,134,135
 617 654 617 654 653.5 654 c 128,-1,136
 690 654 690 654 720 654 c 0,137,138
 733 654 733 654 742 654 c 0,139,140
 749 654 749 654 750 654 c 1,141,142
 750 653 750 653 750 651 c 1,143,-1
 752 651 l 1,0,-1
EndSplineSet
EndChar

StartChar: N
Encoding: 78 78 27
Width: 763
VWidth: 1000
GlyphClass: 2
Flags: W
LayerCount: 2
Fore
SplineSet
693 650 m 1,0,-1
 693 646 l 1,1,-1
 693 634 l 2,2,3
 693 625 693 625 693 614.5 c 128,-1,4
 693 604 693 604 693 593 c 0,5,6
 694 536 694 536 694 467.5 c 128,-1,7
 694 399 694 399 694 342 c 0,8,9
 694 332 694 332 694 321 c 128,-1,10
 694 310 694 310 694 301 c 2,11,-1
 694 290 l 1,12,-1
 694 286 l 1,13,-1
 693 286 l 1,14,-1
 609 56 l 1,15,-1
 589 -11 l 1,16,-1
 204 395 l 1,17,18
 204 387 204 387 204 368 c 2,19,-1
 204 324 l 2,20,21
 204 201 204 201 204 99 c 0,22,23
 204 79 204 79 204 60 c 128,-1,24
 204 41 204 41 204 24 c 2,25,-1
 204 4 l 1,26,-1
 204 -4 l 1,27,-1
 54 -4 l 1,28,-1
 54 4 l 1,29,-1
 54 24 l 2,30,31
 54 41 54 41 54 60 c 128,-1,32
 54 79 54 79 54 99 c 0,33,34
 54 201 54 201 54 324 c 128,-1,35
 54 447 54 447 54 549 c 0,36,37
 54 569 54 569 54 588 c 128,-1,38
 54 607 54 607 54 623 c 2,39,-1
 54 644 l 1,40,-1
 54 652 l 1,41,42
 127 652 127 652 200 652 c 1,43,44
 200 653 200 653 201 653 c 128,-1,45
 202 653 202 653 203 652 c 2,46,-1
 204 652 l 1,47,-1
 204 651 l 1,48,-1
 544 292 l 1,49,-1
 544 301 l 2,50,51
 544 310 544 310 544 321 c 128,-1,52
 544 332 544 332 544 342 c 0,53,54
 544 399 544 399 544 467.5 c 128,-1,55
 544 536 544 536 543 593 c 0,56,57
 543 604 543 604 543 614.5 c 128,-1,58
 543 625 543 625 543 634 c 2,59,-1
 543 646 l 1,60,-1
 543 650 l 1,61,-1
 693 650 l 1,0,-1
EndSplineSet
EndChar

StartChar: O
Encoding: 79 79 28
Width: 795
VWidth: 1000
GlyphClass: 2
Flags: W
LayerCount: 2
Fore
SplineSet
565 508 m 1,0,-1
 564 508 l 1,1,-1
 563 508 l 1,2,-1
 562 508 l 1,3,-1
 561 508 l 1,4,-1
 560 508 l 1,5,-1
 559 508 l 1,6,-1
 558 508 l 1,7,-1
 557 508 l 1,8,-1
 556 508 l 1,9,-1
 555 508 l 1,10,-1
 554 508 l 1,11,-1
 553 508 l 1,12,-1
 552 508 l 1,13,-1
 551 508 l 1,14,-1
 550 508 l 1,15,-1
 549 508 l 1,16,-1
 548 508 l 1,17,-1
 547 508 l 1,18,-1
 546 508 l 1,19,-1
 544 508 l 2,20,21
 470 507 470 507 381.5 506 c 128,-1,22
 293 505 293 505 219 504 c 0,23,24
 217 504 217 504 212.5 504 c 128,-1,25
 208 504 208 504 207 504 c 0,26,27
 205 503 205 503 204 501 c 0,28,29
 200 497 200 497 196 493 c 1,30,31
 196 486 196 486 196 478 c 0,32,33
 196 406 196 406 196 319.5 c 128,-1,34
 196 233 196 233 196 161 c 0,35,36
 196 154 196 154 196 149 c 2,37,-1
 206 140 l 1,38,39
 232 140 232 140 233 140 c 0,40,41
 306 140 306 140 393.5 140.5 c 128,-1,42
 481 141 481 141 554 141 c 0,43,44
 557 141 557 141 558 141 c 0,45,46
 560 143 560 143 562 145 c 0,47,48
 567 150 567 150 572 155 c 1,49,50
 572 163 572 163 572 168 c 0,51,52
 572 241 572 241 573 327.5 c 128,-1,53
 574 414 574 414 574 486 c 0,54,55
 574 489 574 489 574 494 c 2,56,-1
 575 500 l 1,57,58
 570 504 570 504 565 508 c 1,0,-1
725 557 m 1,59,60
 725 556 725 556 725 555 c 0,61,62
 725 553 725 553 725 551 c 0,63,64
 725 546 725 546 725 537 c 2,65,-1
 724 485 l 2,66,67
 724 412 724 412 723 325.5 c 128,-1,68
 722 239 722 239 722 167 c 0,69,70
 722 137 722 137 721 115 c 0,71,72
 721 106 721 106 721 100 c 2,73,-1
 721 98 l 1,74,-1
 722 97 l 1,75,-1
 721 97 l 1,76,-1
 721 95 l 1,77,-1
 720 95 l 1,78,-1
 719 94 l 1,79,-1
 718 93 l 2,80,81
 713 88 713 88 707 81 c 2,82,-1
 705 79 l 1,83,-1
 704 78 l 1,84,-1
 703 77 l 1,85,-1
 702 76 l 1,86,-1
 701 74 l 1,87,-1
 700 73 l 1,88,-1
 699 72 l 1,89,-1
 698 71 l 1,90,-1
 697 71 l 1,91,-1
 697 70 l 1,92,-1
 696 69 l 1,93,-1
 695 68 l 1,94,-1
 694 67 l 1,95,-1
 694 66 l 1,96,-1
 693 66 l 1,97,-1
 692 65 l 1,98,-1
 692 64 l 1,99,-1
 691 64 l 1,100,-1
 690 63 l 1,101,-1
 690 62 l 1,102,-1
 689 61 l 1,103,-1
 688 60 l 1,104,-1
 687 59 l 1,105,-1
 686 58 l 1,106,-1
 685 57 l 1,107,-1
 684 56 l 1,108,-1
 683 55 l 1,109,-1
 682 54 l 1,110,-1
 682 53 l 1,111,-1
 681 52 l 1,112,-1
 680 51 l 1,113,-1
 679 50 l 1,114,-1
 678 50 l 1,115,-1
 678 49 l 1,116,-1
 677 48 l 1,117,-1
 676 47 l 1,118,-1
 675 46 l 1,119,-1
 673 44 l 1,120,-1
 640 7 l 2,121,122
 633 0 633 0 629 -5 c 0,123,124
 628 -5 628 -5 627 -6 c 2,125,-1
 627 -9 l 1,126,-1
 625 -9 l 1,127,-1
 624 -10 l 1,128,-1
 624 -9 l 1,129,-1
 622 -9 l 2,130,131
 619 -9 619 -9 617.5 -9 c 128,-1,132
 616 -9 616 -9 613.5 -9 c 128,-1,133
 611 -9 611 -9 607 -9 c 2,134,-1
 554 -9 l 1,135,-1
 394 -10 l 1,136,-1
 392 -10 l 1,137,-1
 391 -10 l 1,138,-1
 389 -10 l 1,139,-1
 388 -10 l 1,140,-1
 386 -10 l 1,141,-1
 385 -10 l 1,142,-1
 383 -10 l 1,143,-1
 381 -10 l 1,144,-1
 380 -10 l 1,145,-1
 378 -10 l 1,146,-1
 377 -10 l 1,147,-1
 375 -10 l 1,148,-1
 374 -10 l 1,149,-1
 373 -10 l 1,150,-1
 371 -10 l 1,151,-1
 370 -10 l 1,152,-1
 368 -10 l 1,153,-1
 367 -10 l 1,154,-1
 366 -10 l 1,155,-1
 364 -10 l 1,156,-1
 363 -10 l 1,157,-1
 362 -10 l 1,158,-1
 360 -10 l 1,159,-1
 359 -10 l 1,160,-1
 358 -10 l 1,161,-1
 356 -10 l 1,162,-1
 355 -10 l 1,163,-1
 354 -10 l 1,164,-1
 353 -10 l 1,165,-1
 351 -10 l 1,166,-1
 350 -10 l 1,167,-1
 349 -10 l 1,168,-1
 348 -10 l 1,169,-1
 347 -10 l 1,170,-1
 346 -10 l 1,171,-1
 344 -10 l 1,172,-1
 343 -10 l 1,173,-1
 342 -10 l 1,174,-1
 341 -10 l 1,175,-1
 340 -10 l 1,176,-1
 339 -10 l 1,177,-1
 338 -10 l 1,178,-1
 337 -10 l 1,179,-1
 336 -10 l 1,180,-1
 335 -10 l 1,181,-1
 334 -10 l 1,182,-1
 333 -10 l 1,183,-1
 332 -10 l 1,184,-1
 331 -10 l 1,185,-1
 330 -10 l 1,186,-1
 329 -10 l 1,187,-1
 328 -10 l 1,188,-1
 327 -10 l 1,189,-1
 326 -10 l 1,190,-1
 325 -10 l 1,191,-1
 324 -10 l 1,192,-1
 323 -10 l 1,193,-1
 322 -10 l 1,194,-1
 321 -10 l 1,195,-1
 320 -10 l 1,196,-1
 319 -10 l 1,197,-1
 318 -10 l 1,198,-1
 317 -10 l 1,199,-1
 316 -10 l 1,200,-1
 315 -10 l 1,201,-1
 314 -10 l 1,202,-1
 313 -10 l 1,203,-1
 312 -10 l 1,204,-1
 311 -10 l 1,205,-1
 310 -10 l 1,206,-1
 309 -10 l 1,207,-1
 308 -10 l 1,208,-1
 307 -10 l 1,209,-1
 306 -10 l 1,210,-1
 305 -10 l 1,211,-1
 304 -10 l 1,212,-1
 303 -10 l 1,213,-1
 302 -10 l 1,214,-1
 301 -10 l 1,215,-1
 300 -10 l 1,216,-1
 299 -10 l 1,217,-1
 298 -10 l 1,218,-1
 297 -10 l 1,219,-1
 296 -10 l 1,220,-1
 295 -10 l 1,221,-1
 294 -10 l 1,222,-1
 293 -10 l 1,223,-1
 292 -10 l 1,224,-1
 291 -10 l 1,225,-1
 290 -10 l 1,226,-1
 289 -10 l 1,227,-1
 288 -10 l 1,228,-1
 287 -10 l 1,229,-1
 286 -10 l 1,230,-1
 285 -10 l 1,231,-1
 284 -10 l 1,232,-1
 283 -10 l 1,233,-1
 282 -10 l 1,234,-1
 281 -10 l 1,235,-1
 280 -10 l 1,236,-1
 279 -10 l 1,237,-1
 278 -10 l 1,238,-1
 277 -10 l 1,239,-1
 276 -10 l 1,240,-1
 275 -10 l 1,241,-1
 274 -10 l 1,242,-1
 273 -10 l 1,243,-1
 272 -10 l 1,244,-1
 271 -10 l 1,245,-1
 270 -10 l 1,246,-1
 269 -10 l 1,247,-1
 268 -10 l 1,248,-1
 267 -10 l 1,249,-1
 266 -10 l 1,250,-1
 265 -10 l 1,251,-1
 264 -10 l 1,252,-1
 263 -10 l 1,253,-1
 262 -10 l 1,254,-1
 261 -10 l 1,255,-1
 260 -10 l 1,256,-1
 259 -10 l 1,257,-1
 258 -10 l 1,258,-1
 257 -10 l 1,259,-1
 256 -10 l 1,260,-1
 255 -10 l 1,261,-1
 254 -10 l 1,262,-1
 253 -10 l 1,263,-1
 252 -10 l 1,264,-1
 251 -10 l 1,265,-1
 250 -10 l 1,266,-1
 249 -10 l 1,267,-1
 248 -10 l 1,268,-1
 247 -10 l 1,269,-1
 246 -10 l 1,270,-1
 245 -10 l 1,271,-1
 244 -10 l 1,272,-1
 243 -10 l 1,273,-1
 242 -10 l 1,274,-1
 241 -10 l 1,275,-1
 240 -10 l 1,276,-1
 239 -10 l 1,277,-1
 238 -10 l 1,278,-1
 237 -10 l 1,279,-1
 236 -10 l 1,280,-1
 235 -10 l 1,281,-1
 234 -10 l 1,282,-1
 181 -10 l 2,283,284
 177 -10 177 -10 173 -10 c 128,-1,285
 169 -10 169 -10 166 -10 c 2,286,-1
 161 -10 l 1,287,-1
 160 -11 l 1,288,-1
 158 -12 l 1,289,-1
 47 89 l 1,290,-1
 47 95 l 1,291,-1
 47 109 l 2,292,293
 47 121 47 121 46.5 134.5 c 128,-1,294
 46 148 46 148 46 161 c 0,295,296
 46 233 46 233 46 319.5 c 128,-1,297
 46 406 46 406 46 478 c 0,298,299
 46 491 46 491 46 504.5 c 128,-1,300
 46 518 46 518 46 530 c 2,301,-1
 46 544 l 1,302,-1
 46 547 l 1,303,-1
 44 549 l 1,304,305
 45 549 45 549 48 553 c 0,306,307
 53 558 53 558 59 565 c 2,308,-1
 93 602 l 1,309,-1
 126 639 l 2,310,311
 133 646 133 646 137 651 c 0,312,313
 141 655 141 655 142 655 c 0,314,315
 143 654 143 654 144 653 c 2,316,-1
 148 654 l 2,317,318
 154 654 154 654 164 654 c 0,319,320
 186 654 186 654 217 654 c 0,321,322
 291 655 291 655 380 656 c 2,323,-1
 543 658 l 2,324,325
 574 658 574 658 596 658 c 0,326,327
 605 659 605 659 611 659 c 0,328,329
 614 659 614 659 615 659 c 2,330,-1
 616 659 l 1,331,-1
 617 659 l 1,332,333
 617 658 617 658 617 657 c 2,334,-1
 726 557 l 1,335,-1
 725 557 l 1,59,60
EndSplineSet
EndChar

StartChar: P
Encoding: 80 80 29
Width: 748
VWidth: 1000
GlyphClass: 2
Flags: W
LayerCount: 2
Fore
SplineSet
461 233 m 1,0,-1
 460 233 l 1,1,-1
 448 233 l 1,2,-1
 403 233 l 1,3,-1
 266 233 l 1,4,-1
 203 233 l 1,5,6
 203 166 203 166 203 80 c 0,7,8
 203 63 203 63 203 46 c 128,-1,9
 203 29 203 29 203 14 c 2,10,-1
 203 -4 l 1,11,-1
 203 -10 l 1,12,-1
 53 -10 l 1,13,-1
 53 -4 l 1,14,-1
 53 14 l 2,15,16
 53 29 53 29 53 46 c 128,-1,17
 53 63 53 63 53 80 c 0,18,19
 53 170 53 170 53 278 c 2,20,-1
 53 476 l 2,21,22
 53 480 53 480 53 518 c 2,23,-1
 53 647 l 1,24,-1
 59 647 l 1,25,-1
 76 647 l 2,26,27
 89 647 89 647 104.5 647 c 128,-1,28
 120 647 120 647 135 647 c 0,29,30
 217 647 217 647 315 647 c 128,-1,31
 413 647 413 647 495 647 c 0,32,33
 510 647 510 647 525.5 647 c 128,-1,34
 541 647 541 647 554 647 c 2,35,-1
 571 647 l 1,36,-1
 577 647 l 1,37,-1
 577 644 l 2,38,39
 577 643 577 643 580 639 c 0,40,41
 585 632 585 632 592 623 c 2,42,-1
 627 577 l 1,43,-1
 628 575 l 1,44,-1
 629 573 l 1,45,-1
 630 572 l 1,46,-1
 632 570 l 1,47,-1
 633 569 l 1,48,-1
 634 568 l 1,49,-1
 635 566 l 1,50,-1
 636 565 l 1,51,-1
 636 564 l 1,52,-1
 637 563 l 1,53,-1
 638 561 l 1,54,-1
 639 560 l 1,55,-1
 640 559 l 1,56,-1
 641 558 l 1,57,-1
 641 557 l 1,58,-1
 642 556 l 1,59,-1
 643 555 l 1,60,-1
 644 554 l 1,61,-1
 645 553 l 1,62,-1
 645 552 l 1,63,-1
 646 551 l 1,64,-1
 646 550 l 1,65,-1
 647 550 l 1,66,-1
 648 549 l 1,67,-1
 648 548 l 1,68,-1
 649 547 l 1,69,-1
 650 546 l 1,70,-1
 651 545 l 1,71,-1
 651 544 l 1,72,-1
 652 543 l 1,73,-1
 653 542 l 1,74,-1
 654 541 l 1,75,-1
 654 540 l 1,76,-1
 655 539 l 1,77,-1
 655 538 l 1,78,-1
 656 538 l 1,79,-1
 657 537 l 1,80,-1
 657 536 l 1,81,-1
 658 535 l 1,82,-1
 659 534 l 1,83,-1
 660 533 l 1,84,-1
 660 532 l 1,85,-1
 661 531 l 1,86,-1
 662 530 l 1,87,-1
 674 514 l 2,88,89
 677 510 677 510 678 508 c 2,90,-1
 465 233 l 1,91,-1
 464 233 l 1,92,93
 464 232 464 232 463 231 c 1,94,-1
 461 233 l 1,0,-1
391 383 m 1,95,-1
 480 497 l 1,96,97
 433 497 433 497 315 497 c 0,98,99
 278 497 278 497 203 497 c 1,100,101
 203 488 203 488 203 476 c 0,102,103
 203 410 203 410 203 383 c 1,104,-1
 266 383 l 1,105,-1
 391 383 l 1,95,-1
EndSplineSet
EndChar

StartChar: Q
Encoding: 81 81 30
Width: 799
VWidth: 1000
GlyphClass: 2
Flags: W
LayerCount: 2
Fore
SplineSet
729 657 m 1,0,-1
 729 650 l 1,1,-1
 729 633 l 2,2,3
 729 619 729 619 729 602.5 c 128,-1,4
 729 586 729 586 729 570 c 0,5,6
 729 482 729 482 729 378 c 0,7,8
 729 331 729 331 728 286.5 c 128,-1,9
 727 242 727 242 726 220 c 2,10,-1
 726 199 l 1,11,-1
 579 99 l 1,12,-1
 579 186 l 2,13,14
 582 204 582 204 580.5 275.5 c 128,-1,15
 579 347 579 347 579 378 c 128,-1,16
 579 409 579 409 579 448 c 2,17,-1
 579 506 l 1,18,-1
 576 506 l 2,19,20
 574 506 574 506 571 506 c 0,21,22
 553 506 553 506 527 506 c 0,23,24
 466 505 466 505 392 503.5 c 128,-1,25
 318 502 318 502 257 501 c 0,26,27
 231 501 231 501 213 501 c 0,28,29
 206 501 206 501 204 501 c 1,30,31
 204 442 204 442 204 324 c 0,32,33
 204 200 204 200 204 146 c 1,34,35
 208 146 208 146 216 146 c 128,-1,36
 224 146 224 146 234 146 c 0,37,38
 280 145 280 145 334.5 145 c 128,-1,39
 389 145 389 145 434 145 c 0,40,41
 444 145 444 145 452.5 145 c 128,-1,42
 461 145 461 145 467 145 c 2,43,-1
 476 145 l 1,44,-1
 477 145 l 1,45,-1
 479 145 l 1,46,47
 479 144 479 144 479 143.5 c 128,-1,48
 479 143 479 143 479 142 c 2,49,-1
 662 -50 l 1,50,-1
 554 -154 l 1,51,-1
 412 -5 l 1,52,-1
 334 -5 l 1,53,-1
 234 -4 l 2,54,55
 224 -4 224 -4 215.5 -4 c 128,-1,56
 207 -4 207 -4 201 -4 c 2,57,-1
 192 -4 l 1,58,-1
 189 -4 l 1,59,-1
 54 -4 l 1,60,-1
 54 4 l 1,61,-1
 54 24 l 2,62,63
 54 41 54 41 54 60 c 128,-1,64
 54 79 54 79 54 99 c 0,65,66
 54 201 54 201 54 324 c 128,-1,67
 54 447 54 447 54 549 c 0,68,69
 54 569 54 569 54 588 c 128,-1,70
 54 607 54 607 54 623 c 2,71,-1
 54 644 l 1,72,-1
 54 652 l 1,73,-1
 204 652 l 1,74,-1
 204 651 l 1,75,76
 208 651 208 651 210 651 c 0,77,78
 229 651 229 651 255 651 c 2,79,-1
 390 654 l 2,80,81
 463 655 463 655 525 656 c 0,82,83
 551 656 551 656 569 656 c 0,84,85
 575 656 575 656 579 657 c 2,86,-1
 729 657 l 1,0,-1
EndSplineSet
EndChar

StartChar: R
Encoding: 82 82 31
Width: 815
VWidth: 1000
GlyphClass: 2
Flags: W
LayerCount: 2
Fore
SplineSet
391 383 m 1,0,-1
 480 497 l 1,1,2
 433 497 433 497 315 497 c 0,3,4
 278 497 278 497 203 497 c 1,5,6
 203 488 203 488 203 476 c 0,7,8
 203 410 203 410 203 383 c 1,9,-1
 266 383 l 1,10,-1
 391 383 l 1,0,-1
746 -5 m 1,11,-1
 738 -5 l 1,12,-1
 716 -5 l 1,13,-1
 650 -5 l 1,14,-1
 584 -5 l 1,15,-1
 562 -5 l 1,16,-1
 554 -5 l 1,17,-1
 552 -2 l 2,18,19
 550 1 550 1 547 6 c 0,20,21
 539 18 539 18 527 35 c 2,22,-1
 469 122 l 1,23,-1
 410 210 l 1,24,-1
 409 211 l 1,25,-1
 409 212 l 1,26,-1
 408 213 l 1,27,-1
 407 214 l 1,28,-1
 406 215 l 1,29,-1
 406 216 l 1,30,-1
 405 217 l 1,31,-1
 404 219 l 1,32,-1
 403 220 l 1,33,-1
 402 222 l 1,34,-1
 401 223 l 1,35,-1
 401 224 l 1,36,-1
 400 225 l 1,37,-1
 399 226 l 1,38,-1
 399 227 l 1,39,-1
 398 228 l 1,40,-1
 397 229 l 1,41,-1
 397 230 l 1,42,-1
 396 231 l 1,43,-1
 395 233 l 1,44,-1
 266 233 l 1,45,-1
 203 233 l 1,46,47
 203 166 203 166 203 80 c 0,48,49
 203 63 203 63 203 46 c 128,-1,50
 203 29 203 29 203 14 c 2,51,-1
 203 -4 l 1,52,-1
 203 -10 l 1,53,-1
 53 -10 l 1,54,-1
 53 -4 l 1,55,-1
 53 14 l 2,56,57
 53 29 53 29 53 46 c 128,-1,58
 53 63 53 63 53 80 c 0,59,60
 53 170 53 170 53 278 c 2,61,-1
 53 476 l 2,62,63
 53 480 53 480 53 518 c 2,64,-1
 53 647 l 1,65,-1
 59 647 l 1,66,-1
 76 647 l 2,67,68
 89 647 89 647 104.5 647 c 128,-1,69
 120 647 120 647 135 647 c 0,70,71
 217 647 217 647 315 647 c 128,-1,72
 413 647 413 647 495 647 c 0,73,74
 510 647 510 647 525.5 647 c 128,-1,75
 541 647 541 647 554 647 c 2,76,-1
 571 647 l 1,77,-1
 577 647 l 1,78,-1
 577 644 l 2,79,80
 577 643 577 643 580 639 c 0,81,82
 585 632 585 632 592 623 c 2,83,-1
 627 577 l 1,84,-1
 628 575 l 1,85,-1
 629 573 l 1,86,-1
 630 572 l 1,87,-1
 632 570 l 1,88,-1
 633 569 l 1,89,-1
 634 568 l 1,90,-1
 635 566 l 1,91,-1
 636 565 l 1,92,-1
 636 564 l 1,93,-1
 637 563 l 1,94,-1
 638 561 l 1,95,-1
 639 560 l 1,96,-1
 640 559 l 1,97,-1
 641 558 l 1,98,-1
 641 557 l 1,99,-1
 642 556 l 1,100,-1
 643 555 l 1,101,-1
 644 554 l 1,102,-1
 645 553 l 1,103,-1
 645 552 l 1,104,-1
 646 551 l 1,105,-1
 646 550 l 1,106,-1
 647 550 l 1,107,-1
 648 549 l 1,108,-1
 648 548 l 1,109,-1
 649 547 l 1,110,-1
 650 546 l 1,111,-1
 651 545 l 1,112,-1
 651 544 l 1,113,-1
 652 543 l 1,114,-1
 653 542 l 1,115,-1
 654 541 l 1,116,-1
 654 540 l 1,117,-1
 655 539 l 1,118,-1
 655 538 l 1,119,-1
 656 538 l 1,120,-1
 657 537 l 1,121,-1
 657 536 l 1,122,-1
 658 535 l 1,123,-1
 659 534 l 1,124,-1
 660 533 l 1,125,-1
 660 532 l 1,126,-1
 661 531 l 1,127,-1
 662 530 l 1,128,-1
 674 514 l 2,129,130
 677 510 677 510 678 508 c 2,131,-1
 524 309 l 1,132,-1
 525 308 l 1,133,-1
 526 307 l 1,134,-1
 526 306 l 1,135,-1
 528 304 l 1,136,-1
 528 303 l 1,137,-1
 529 302 l 1,138,-1
 530 301 l 1,139,-1
 530 300 l 1,140,-1
 531 299 l 1,141,-1
 531 298 l 1,142,-1
 532 297 l 1,143,-1
 533 296 l 1,144,-1
 533 295 l 1,145,-1
 534 294 l 1,146,-1
 535 293 l 1,147,-1
 593 206 l 1,148,-1
 634 145 l 1,149,-1
 650 145 l 1,150,-1
 716 145 l 1,151,-1
 738 145 l 1,152,-1
 746 145 l 1,153,-1
 746 -5 l 1,11,-1
EndSplineSet
EndChar

StartChar: S
Encoding: 83 83 32
Width: 727
VWidth: 1000
GlyphClass: 2
Flags: W
LayerCount: 2
Fore
SplineSet
550 648 m 1,0,1
 550 647 550 647 554 642 c 0,2,3
 559 636 559 636 565 627 c 2,4,-1
 566 625 l 1,5,-1
 567 624 l 1,6,-1
 568 623 l 1,7,-1
 569 622 l 1,8,-1
 570 620 l 1,9,-1
 571 619 l 1,10,-1
 572 618 l 1,11,-1
 573 617 l 1,12,-1
 573 616 l 1,13,-1
 574 615 l 1,14,-1
 575 614 l 1,15,-1
 575 613 l 1,16,-1
 576 613 l 1,17,-1
 577 612 l 1,18,-1
 577 611 l 1,19,-1
 578 610 l 1,20,-1
 578 609 l 1,21,-1
 579 609 l 1,22,-1
 580 608 l 1,23,-1
 580 607 l 1,24,-1
 581 606 l 1,25,-1
 582 605 l 1,26,-1
 582 604 l 1,27,-1
 583 604 l 1,28,-1
 583 603 l 1,29,-1
 584 602 l 1,30,-1
 584 601 l 1,31,-1
 585 601 l 1,32,-1
 585 600 l 1,33,-1
 586 599 l 1,34,-1
 587 598 l 1,35,-1
 588 597 l 1,36,-1
 588 596 l 1,37,-1
 589 595 l 1,38,-1
 590 594 l 1,39,-1
 591 593 l 1,40,-1
 591 592 l 1,41,-1
 592 591 l 1,42,-1
 593 590 l 1,43,-1
 594 589 l 1,44,-1
 594 588 l 1,45,-1
 595 587 l 1,46,-1
 596 586 l 1,47,-1
 596 585 l 1,48,-1
 597 584 l 1,49,-1
 598 583 l 1,50,-1
 599 582 l 1,51,-1
 599 581 l 1,52,-1
 600 580 l 1,53,-1
 635 533 l 1,54,-1
 647 518 l 2,55,56
 651 513 651 513 651 512 c 2,57,-1
 531 422 l 2,58,59
 530 423 530 423 527 428 c 0,60,61
 522 434 522 434 515 443 c 2,62,-1
 480 490 l 1,63,-1
 475 497 l 1,64,65
 445 497 445 497 390 497 c 0,66,67
 331 497 331 497 281 497 c 2,68,-1
 279 497 l 1,69,-1
 238 465 l 2,70,71
 239 463 239 463 241 461 c 2,72,-1
 281 402 l 1,73,-1
 346 402 l 1,74,-1
 445 402 l 1,75,-1
 478 402 l 1,76,-1
 486 402 l 2,77,78
 487 402 487 402 488 402 c 2,79,-1
 490 402 l 1,80,-1
 490 398 l 1,81,-1
 495 392 l 1,82,-1
 496 390 l 1,83,-1
 496 389 l 1,84,-1
 497 388 l 1,85,-1
 498 387 l 1,86,-1
 498 386 l 1,87,-1
 499 385 l 1,88,-1
 500 384 l 1,89,-1
 501 383 l 1,90,-1
 501 382 l 1,91,-1
 502 381 l 1,92,-1
 503 380 l 1,93,-1
 503 379 l 1,94,-1
 504 378 l 1,95,-1
 504 377 l 1,96,-1
 505 377 l 1,97,-1
 505 376 l 1,98,-1
 506 375 l 1,99,-1
 507 374 l 1,100,-1
 507 373 l 1,101,-1
 508 372 l 1,102,-1
 508 371 l 1,103,-1
 509 371 l 1,104,-1
 509 370 l 1,105,-1
 510 369 l 1,106,-1
 511 368 l 1,107,-1
 511 367 l 1,108,-1
 512 366 l 1,109,-1
 512 365 l 1,110,-1
 513 364 l 1,111,-1
 514 363 l 1,112,-1
 515 361 l 1,113,-1
 516 360 l 1,114,-1
 517 359 l 1,115,-1
 518 358 l 1,116,-1
 518 356 l 1,117,-1
 519 355 l 1,118,-1
 520 354 l 1,119,-1
 521 353 l 1,120,-1
 522 352 l 1,121,-1
 522 350 l 1,122,-1
 523 349 l 1,123,-1
 524 348 l 1,124,-1
 525 347 l 1,125,-1
 525 346 l 1,126,-1
 526 345 l 1,127,-1
 527 344 l 1,128,-1
 527 343 l 1,129,-1
 528 342 l 1,130,-1
 529 341 l 1,131,-1
 529 340 l 1,132,-1
 530 339 l 1,133,-1
 530 338 l 1,134,-1
 531 338 l 1,135,-1
 532 337 l 1,136,-1
 532 336 l 1,137,-1
 533 335 l 1,138,-1
 533 334 l 1,139,-1
 534 333 l 1,140,-1
 535 332 l 1,141,-1
 535 331 l 1,142,-1
 536 330 l 1,143,-1
 537 329 l 1,144,-1
 537 328 l 1,145,-1
 538 327 l 1,146,-1
 539 326 l 1,147,-1
 539 325 l 1,148,-1
 540 324 l 1,149,-1
 541 323 l 1,150,-1
 541 322 l 1,151,-1
 542 322 l 1,152,-1
 542 321 l 1,153,-1
 543 320 l 1,154,-1
 543 319 l 1,155,-1
 544 319 l 1,156,-1
 544 318 l 1,157,-1
 545 317 l 1,158,-1
 546 316 l 1,159,-1
 546 315 l 1,160,-1
 547 314 l 1,161,-1
 547 313 l 1,162,-1
 548 312 l 1,163,-1
 549 311 l 1,164,-1
 549 310 l 1,165,-1
 550 309 l 1,166,-1
 551 308 l 1,167,-1
 551 307 l 1,168,-1
 552 306 l 1,169,-1
 553 305 l 1,170,-1
 553 304 l 1,171,-1
 554 303 l 1,172,-1
 555 303 l 1,173,-1
 555 302 l 1,174,-1
 556 301 l 1,175,-1
 556 300 l 1,176,-1
 557 299 l 1,177,-1
 558 298 l 1,178,-1
 558 297 l 1,179,-1
 559 296 l 1,180,-1
 559 295 l 1,181,-1
 560 294 l 1,182,-1
 561 293 l 1,183,-1
 562 292 l 1,184,-1
 562 291 l 1,185,-1
 563 290 l 1,186,-1
 564 289 l 1,187,-1
 564 288 l 1,188,-1
 565 287 l 1,189,-1
 565 286 l 1,190,-1
 566 285 l 1,191,-1
 567 284 l 1,192,-1
 568 283 l 1,193,-1
 569 282 l 1,194,-1
 569 281 l 1,195,-1
 570 280 l 1,196,-1
 571 279 l 1,197,-1
 571 278 l 1,198,-1
 572 277 l 1,199,-1
 573 275 l 1,200,-1
 574 274 l 1,201,-1
 575 272 l 1,202,-1
 576 271 l 1,203,-1
 577 269 l 1,204,-1
 578 268 l 1,205,-1
 579 266 l 1,206,-1
 580 265 l 1,207,-1
 581 263 l 1,208,-1
 582 262 l 1,209,-1
 583 260 l 1,210,-1
 584 259 l 1,211,-1
 585 258 l 1,212,-1
 585 256 l 1,213,-1
 586 255 l 1,214,-1
 587 254 l 1,215,-1
 588 253 l 1,216,-1
 589 251 l 1,217,-1
 590 250 l 1,218,-1
 590 249 l 1,219,-1
 591 248 l 1,220,-1
 592 247 l 1,221,-1
 593 246 l 1,222,-1
 593 245 l 1,223,-1
 594 244 l 1,224,-1
 595 243 l 1,225,-1
 595 242 l 1,226,-1
 596 241 l 1,227,-1
 597 240 l 1,228,-1
 597 239 l 1,229,-1
 598 238 l 1,230,-1
 599 237 l 1,231,-1
 599 236 l 1,232,-1
 600 235 l 1,233,-1
 600 234 l 1,234,-1
 601 233 l 1,235,-1
 602 232 l 1,236,-1
 603 231 l 1,237,-1
 603 230 l 1,238,-1
 604 229 l 1,239,-1
 604 228 l 1,240,-1
 605 228 l 1,241,-1
 605 227 l 1,242,-1
 606 226 l 1,243,-1
 606 225 l 1,244,-1
 607 224 l 1,245,-1
 608 223 l 1,246,-1
 608 222 l 1,247,-1
 609 221 l 1,248,-1
 610 221 l 1,249,-1
 610 220 l 1,250,-1
 611 219 l 1,251,-1
 611 218 l 1,252,-1
 612 217 l 1,253,-1
 613 216 l 1,254,-1
 613 215 l 1,255,-1
 614 214 l 1,256,-1
 615 213 l 1,257,-1
 615 212 l 1,258,-1
 616 211 l 1,259,-1
 616 210 l 1,260,-1
 617 210 l 1,261,-1
 617 209 l 1,262,-1
 618 208 l 1,263,-1
 619 207 l 1,264,-1
 619 206 l 1,265,-1
 620 205 l 1,266,-1
 620 204 l 1,267,-1
 621 204 l 1,268,-1
 621 203 l 1,269,-1
 622 202 l 1,270,-1
 623 201 l 1,271,-1
 623 200 l 1,272,-1
 624 199 l 1,273,-1
 624 198 l 1,274,-1
 625 197 l 1,275,-1
 626 196 l 1,276,-1
 626 195 l 1,277,-1
 627 195 l 1,278,-1
 628 194 l 1,279,-1
 628 193 l 1,280,-1
 629 192 l 1,281,-1
 630 191 l 1,282,-1
 630 190 l 1,283,-1
 631 188 l 1,284,-1
 632 187 l 1,285,-1
 633 185 l 1,286,-1
 634 183 l 1,287,-1
 635 182 l 1,288,-1
 636 180 l 1,289,-1
 637 179 l 1,290,-1
 638 178 l 1,291,-1
 639 177 l 1,292,-1
 640 176 l 1,293,-1
 640 175 l 1,294,-1
 641 174 l 1,295,-1
 642 173 l 1,296,-1
 642 172 l 1,297,-1
 643 171 l 1,298,-1
 643 170 l 1,299,-1
 644 169 l 1,300,-1
 645 168 l 1,301,-1
 645 167 l 1,302,-1
 646 166 l 1,303,-1
 647 165 l 1,304,-1
 647 164 l 1,305,-1
 648 164 l 1,306,-1
 648 163 l 1,307,-1
 649 162 l 1,308,-1
 650 161 l 1,309,-1
 650 159 l 1,310,311
 654 155 654 155 656 151 c 0,312,313
 657 149 657 149 658 149 c 1,314,-1
 639 136 l 1,315,-1
 626 126 l 1,316,-1
 560 71 l 1,317,-1
 494 16 l 1,318,-1
 492 14 l 1,319,-1
 491 13 l 1,320,-1
 489 12 l 1,321,-1
 488 11 l 1,322,-1
 487 10 l 1,323,-1
 486 9 l 1,324,-1
 484 8 l 1,325,-1
 483 7 l 1,326,-1
 482 6 l 1,327,-1
 482 5 l 1,328,-1
 481 5 l 1,329,-1
 480 4 l 1,330,-1
 479 3 l 1,331,-1
 478 3 l 1,332,-1
 477 2 l 1,333,-1
 477 1 l 1,334,-1
 476 1 l 1,335,-1
 475 0 l 1,336,-1
 474 -1 l 1,337,-1
 472 -2 l 1,338,-1
 466 -7 l 1,339,-1
 464 -9 l 1,340,-1
 463 -8 l 1,341,-1
 461 -8 l 1,342,-1
 451 -8 l 2,343,344
 443 -8 443 -8 434 -8 c 128,-1,345
 425 -8 425 -8 416 -8 c 2,346,-1
 309 -9 l 1,347,-1
 203 -9 l 2,348,349
 194 -9 194 -9 185 -9 c 128,-1,350
 176 -9 176 -9 168 -9 c 2,351,-1
 158 -9 l 1,352,-1
 157 -9 l 1,353,-1
 156 -9 l 1,354,-1
 155 -9 l 1,355,-1
 155 -7 l 1,356,-1
 152 -4 l 2,357,358
 147 3 147 3 140 12 c 2,359,-1
 139 13 l 1,360,-1
 138 14 l 1,361,-1
 138 16 l 1,362,-1
 137 17 l 1,363,-1
 136 18 l 1,364,-1
 135 19 l 1,365,-1
 134 20 l 1,366,-1
 133 21 l 1,367,-1
 133 22 l 1,368,-1
 132 23 l 1,369,-1
 131 24 l 1,370,-1
 131 25 l 1,371,-1
 130 26 l 1,372,-1
 129 27 l 1,373,-1
 129 28 l 1,374,-1
 128 28 l 1,375,-1
 127 29 l 1,376,-1
 127 30 l 1,377,-1
 126 31 l 1,378,-1
 125 32 l 1,379,-1
 125 33 l 1,380,-1
 124 34 l 1,381,-1
 123 35 l 1,382,-1
 123 36 l 1,383,-1
 122 36 l 1,384,-1
 122 37 l 1,385,-1
 121 38 l 1,386,-1
 120 38 l 1,387,-1
 120 39 l 1,388,-1
 119 40 l 1,389,-1
 119 41 l 1,390,-1
 118 41 l 1,391,-1
 118 42 l 1,392,-1
 117 43 l 1,393,-1
 117 44 l 1,394,-1
 116 45 l 1,395,-1
 115 45 l 1,396,-1
 115 46 l 1,397,-1
 114 47 l 1,398,-1
 113 48 l 1,399,-1
 113 49 l 1,400,-1
 112 50 l 1,401,-1
 111 51 l 1,402,-1
 110 52 l 1,403,-1
 109 53 l 1,404,-1
 109 54 l 1,405,-1
 108 55 l 1,406,-1
 107 56 l 1,407,-1
 107 57 l 1,408,-1
 105 59 l 1,409,-1
 70 105 l 1,410,-1
 69 107 l 1,411,-1
 68 109 l 1,412,-1
 67 110 l 1,413,-1
 66 111 l 1,414,-1
 65 112 l 1,415,-1
 65 113 l 1,416,-1
 64 114 l 1,417,-1
 63 115 l 1,418,-1
 63 116 l 1,419,-1
 62 117 l 1,420,-1
 61 117 l 1,421,-1
 61 118 l 1,422,-1
 60 119 l 1,423,-1
 59 121 l 2,424,425
 55 126 55 126 55 127 c 2,426,-1
 175 217 l 1,427,428
 175 215 175 215 179 211 c 2,429,-1
 191 195 l 1,430,-1
 192 194 l 1,431,-1
 192 193 l 1,432,-1
 193 191 l 1,433,-1
 194 190 l 1,434,-1
 195 189 l 1,435,-1
 196 188 l 1,436,-1
 197 187 l 1,437,-1
 198 186 l 1,438,-1
 198 185 l 1,439,-1
 199 184 l 1,440,-1
 200 183 l 1,441,-1
 200 182 l 1,442,-1
 201 181 l 1,443,-1
 202 180 l 1,444,-1
 203 179 l 1,445,-1
 203 178 l 1,446,-1
 204 177 l 1,447,-1
 205 176 l 1,448,-1
 206 175 l 1,449,-1
 206 174 l 1,450,-1
 207 174 l 1,451,-1
 207 173 l 1,452,-1
 208 172 l 1,453,-1
 208 171 l 1,454,-1
 209 171 l 1,455,-1
 209 170 l 1,456,-1
 210 169 l 1,457,-1
 211 168 l 1,458,-1
 212 167 l 1,459,-1
 212 166 l 1,460,-1
 213 166 l 1,461,-1
 213 165 l 1,462,-1
 214 164 l 1,463,-1
 214 163 l 1,464,-1
 215 163 l 1,465,-1
 216 162 l 1,466,-1
 216 161 l 1,467,-1
 217 160 l 1,468,-1
 217 159 l 1,469,-1
 218 158 l 1,470,-1
 219 158 l 1,471,-1
 219 157 l 1,472,-1
 220 156 l 1,473,-1
 221 155 l 1,474,-1
 221 154 l 1,475,-1
 222 153 l 1,476,-1
 223 152 l 1,477,-1
 224 151 l 1,478,-1
 224 150 l 1,479,-1
 226 148 l 1,480,-1
 231 141 l 1,481,482
 254 141 254 141 309 141 c 0,483,484
 330 141 330 141 348.5 141 c 128,-1,485
 367 141 367 141 379 141 c 128,-1,486
 391 141 391 141 411 141 c 1,487,-1
 456 179 l 1,488,-1
 448 192 l 1,489,-1
 408 252 l 1,490,-1
 346 252 l 1,491,-1
 247 252 l 1,492,-1
 215 252 l 1,493,-1
 206 252 l 1,494,-1
 202 252 l 1,495,-1
 202 251 l 1,496,497
 201 252 201 252 200 254 c 0,498,499
 198 257 198 257 194 262 c 0,500,501
 186 274 186 274 175 291 c 2,502,-1
 117 376 l 1,503,-1
 58 462 l 1,504,-1
 57 464 l 1,505,-1
 56 466 l 1,506,-1
 55 467 l 1,507,-1
 54 469 l 1,508,-1
 53 470 l 1,509,-1
 52 471 l 1,510,-1
 51 473 l 1,511,-1
 50 474 l 1,512,-1
 50 475 l 1,513,-1
 49 476 l 1,514,-1
 48 477 l 1,515,-1
 48 478 l 1,516,-1
 47 479 l 1,517,-1
 46 479 l 1,518,-1
 46 480 l 1,519,-1
 45 481 l 1,520,-1
 45 482 l 1,521,-1
 44 483 l 1,522,-1
 44 484 l 1,523,-1
 43 484 l 1,524,-1
 43 485 l 1,525,-1
 42 486 l 1,526,-1
 41 487 l 1,527,-1
 41 488 l 1,528,-1
 40 489 l 1,529,-1
 39 491 l 1,530,-1
 33 499 l 2,531,532
 32 501 32 501 31 501 c 1,533,-1
 105 552 l 1,534,-1
 133 573 l 1,535,-1
 200 625 l 1,536,-1
 222 643 l 2,537,538
 226 646 226 646 229 647 c 0,539,540
 230 649 230 649 231 649 c 0,541,542
 232 648 232 648 233 647 c 2,543,-1
 235 647 l 1,544,-1
 245 647 l 2,545,546
 253 647 253 647 262.5 647 c 128,-1,547
 272 647 272 647 281 647 c 0,548,549
 331 647 331 647 390 647 c 128,-1,550
 449 647 449 647 499 647 c 0,551,552
 508 647 508 647 517.5 647 c 128,-1,553
 527 647 527 647 535 647 c 2,554,-1
 545 647 l 1,555,-1
 548 647 l 2,556,557
 549 647 549 647 550 648 c 1,0,1
EndSplineSet
EndChar

StartChar: T
Encoding: 84 84 33
Width: 794
VWidth: 1000
GlyphClass: 2
Flags: W
LayerCount: 2
Fore
SplineSet
725 508 m 1,0,1
 724 508 724 508 723 508 c 0,2,3
 721 508 721 508 719 508 c 0,4,5
 711 508 711 508 701 507 c 0,6,7
 674 507 674 507 637 507 c 0,8,9
 540 506 540 506 477 506 c 1,10,11
 477 443 477 443 477 316 c 0,12,13
 477 197 477 197 478 97 c 0,14,15
 478 55 478 55 478 25 c 0,16,17
 478 20 478 20 478 16 c 128,-1,18
 478 12 478 12 478 10 c 128,-1,19
 478 8 478 8 478 4 c 2,20,-1
 478 -3 l 1,21,-1
 328 -3 l 1,22,-1
 328 4 l 2,23,24
 328 8 328 8 328 10 c 128,-1,25
 328 12 328 12 328 16 c 128,-1,26
 328 20 328 20 328 24 c 0,27,28
 328 54 328 54 328 97 c 0,29,30
 327 196 327 196 327 316 c 0,31,32
 327 380 327 380 327 504 c 1,33,34
 299 504 299 504 249 504 c 2,35,-1
 248 504 l 1,36,-1
 247 504 l 1,37,-1
 246 504 l 1,38,-1
 245 504 l 1,39,-1
 244 504 l 1,40,-1
 243 504 l 1,41,-1
 242 504 l 1,42,-1
 241 504 l 1,43,-1
 240 504 l 1,44,-1
 239 504 l 1,45,-1
 238 504 l 1,46,-1
 237 504 l 1,47,-1
 236 504 l 1,48,-1
 234 504 l 1,49,-1
 233 503 l 1,50,-1
 232 503 l 1,51,-1
 231 503 l 1,52,-1
 230 503 l 1,53,-1
 229 503 l 1,54,-1
 227 503 l 1,55,-1
 226 503 l 1,56,-1
 225 503 l 1,57,-1
 224 503 l 1,58,-1
 223 503 l 1,59,-1
 222 503 l 1,60,-1
 220 503 l 1,61,-1
 207 492 l 1,62,-1
 169 458 l 1,63,-1
 167 457 l 1,64,-1
 166 456 l 1,65,-1
 165 455 l 1,66,-1
 164 454 l 1,67,-1
 163 453 l 1,68,-1
 162 452 l 1,69,-1
 161 451 l 1,70,-1
 160 451 l 1,71,-1
 159 450 l 1,72,-1
 158 449 l 1,73,-1
 156 447 l 2,74,75
 153 444 153 444 152 443 c 1,76,-1
 53 556 l 2,77,78
 54 557 54 557 58 560 c 2,79,-1
 70 571 l 1,80,-1
 109 605 l 1,81,-1
 147 638 l 1,82,-1
 148 640 l 1,83,-1
 150 641 l 1,84,-1
 151 642 l 1,85,-1
 152 643 l 1,86,-1
 153 644 l 1,87,-1
 154 645 l 1,88,-1
 155 645 l 1,89,-1
 156 646 l 1,90,-1
 157 647 l 1,91,-1
 157 648 l 1,92,-1
 159 649 l 1,93,-1
 160 650 l 2,94,95
 160 651 160 651 160 653 c 1,96,-1
 161 653 l 2,97,98
 162 653 162 653 164 653 c 128,-1,99
 166 653 166 653 167 653 c 0,100,101
 174 653 174 653 184 653 c 0,102,103
 211 653 211 653 248 654 c 0,104,105
 336 654 336 654 442 655 c 128,-1,106
 548 656 548 656 636 657 c 0,107,108
 673 657 673 657 699 657 c 2,109,-1
 717 658 l 2,110,111
 723 658 723 658 724 658 c 2,112,-1
 725 508 l 1,0,1
EndSplineSet
EndChar

StartChar: U
Encoding: 85 85 34
Width: 793
VWidth: 1000
GlyphClass: 2
Flags: W
LayerCount: 2
Fore
SplineSet
723 658 m 1,0,-1
 723 650 l 1,1,-1
 723 629 l 2,2,3
 723 612 723 612 723 592.5 c 128,-1,4
 723 573 723 573 723 553 c 0,5,6
 723 449 723 449 723 324 c 128,-1,7
 723 199 723 199 723 95 c 0,8,9
 723 76 723 76 723 56.5 c 128,-1,10
 723 37 723 37 723 20 c 2,11,-1
 723 -1 l 1,12,-1
 723 -9 l 1,13,-1
 613 -9 l 1,14,-1
 610 -9 l 1,15,-1
 573 -9 l 1,16,-1
 541 -8 l 1,17,-1
 381 -7 l 1,18,-1
 222 -6 l 1,19,-1
 220 -6 l 1,20,-1
 218 -6 l 1,21,-1
 217 -6 l 1,22,-1
 215 -6 l 1,23,-1
 214 -6 l 1,24,-1
 212 -6 l 1,25,-1
 211 -6 l 1,26,-1
 209 -6 l 1,27,-1
 208 -6 l 1,28,-1
 207 -6 l 1,29,-1
 205 -6 l 1,30,-1
 204 -6 l 1,31,-1
 203 -6 l 1,32,-1
 202 -6 l 1,33,-1
 200 -6 l 1,34,-1
 199 -6 l 1,35,-1
 198 -6 l 1,36,-1
 197 -6 l 1,37,-1
 196 -6 l 1,38,-1
 195 -6 l 1,39,-1
 194 -6 l 1,40,-1
 193 -6 l 1,41,-1
 192 -6 l 1,42,-1
 191 -6 l 1,43,-1
 190 -6 l 1,44,-1
 189 -6 l 1,45,-1
 188 -6 l 1,46,-1
 187 -6 l 1,47,-1
 186 -6 l 1,48,-1
 185 -6 l 1,49,-1
 184 -6 l 1,50,-1
 183 -6 l 1,51,-1
 182 -6 l 1,52,-1
 181 -6 l 1,53,-1
 180 -6 l 1,54,-1
 179 -6 l 1,55,-1
 178 -6 l 1,56,-1
 177 -6 l 1,57,-1
 176 -6 l 1,58,-1
 175 -6 l 1,59,-1
 174 -6 l 1,60,-1
 173 -6 l 1,61,-1
 172 -6 l 1,62,-1
 171 -6 l 1,63,-1
 169 -6 l 1,64,-1
 155 -6 l 2,65,66
 150 -6 150 -6 149 -6 c 1,67,-1
 149 -5 l 1,68,69
 102 -5 102 -5 54 -5 c 1,70,-1
 54 2 l 1,71,-1
 54 23 l 2,72,73
 54 39 54 39 54 58.5 c 128,-1,74
 54 78 54 78 54 97 c 0,75,76
 54 200 54 200 54 323 c 128,-1,77
 54 446 54 446 54 549 c 0,78,79
 54 568 54 568 54 587.5 c 128,-1,80
 54 607 54 607 54 623 c 2,81,-1
 54 644 l 1,82,-1
 54 652 l 1,83,-1
 204 652 l 1,84,-1
 204 644 l 1,85,-1
 204 623 l 2,86,87
 204 607 204 607 204 587.5 c 128,-1,88
 204 568 204 568 204 549 c 0,89,90
 204 446 204 446 204 323 c 0,91,92
 204 204 204 204 204 144 c 1,93,94
 215 144 215 144 223 144 c 0,95,96
 295 143 295 143 382 142.5 c 128,-1,97
 469 142 469 142 542 142 c 0,98,99
 565 142 565 142 573 141 c 1,100,101
 573 209 573 209 573 324 c 0,102,103
 573 449 573 449 573 553 c 0,104,105
 573 573 573 573 573 592.5 c 128,-1,106
 573 612 573 612 573 629 c 2,107,-1
 573 650 l 1,108,-1
 573 657 l 1,109,-1
 723 658 l 1,0,-1
EndSplineSet
EndChar

StartChar: V
Encoding: 86 86 35
Width: 821
VWidth: 1000
GlyphClass: 2
Flags: W
LayerCount: 2
Fore
SplineSet
295 -3 m 1,0,1
 294 -2 294 -2 292 0 c 0,2,3
 289 3 289 3 284 8 c 2,4,-1
 283 9 l 1,5,-1
 282 10 l 1,6,-1
 281 11 l 1,7,-1
 280 12 l 1,8,-1
 279 13 l 1,9,-1
 279 14 l 1,10,-1
 278 15 l 1,11,-1
 277 16 l 1,12,-1
 276 17 l 1,13,-1
 275 18 l 1,14,-1
 274 19 l 1,15,-1
 273 20 l 1,16,-1
 272 21 l 1,17,-1
 271 22 l 1,18,-1
 270 23 l 1,19,-1
 270 24 l 1,20,-1
 269 24 l 1,21,-1
 268 25 l 1,22,-1
 268 26 l 1,23,-1
 267 27 l 1,24,-1
 266 27 l 1,25,-1
 265 28 l 1,26,-1
 264 29 l 1,27,-1
 264 30 l 1,28,-1
 263 31 l 1,29,-1
 262 32 l 1,30,-1
 261 32 l 1,31,-1
 260 33 l 1,32,-1
 259 34 l 1,33,-1
 258 35 l 1,34,-1
 257 36 l 1,35,-1
 175 123 l 1,36,-1
 92 209 l 1,37,-1
 65 237 l 2,38,39
 60 242 60 242 57 245 c 0,40,41
 55 247 55 247 54 248 c 1,42,43
 55 248 55 248 55 249 c 1,44,-1
 53 249 l 1,45,-1
 53 253 l 1,46,-1
 53 266 l 2,47,48
 53 276 53 276 53 288 c 128,-1,49
 53 300 53 300 53 312 c 0,50,51
 53 375 53 375 53.5 451 c 128,-1,52
 54 527 54 527 54 591 c 0,53,54
 54 603 54 603 54 614.5 c 128,-1,55
 54 626 54 626 54 637 c 2,56,-1
 54 650 l 1,57,-1
 54 654 l 1,58,-1
 204 654 l 1,59,-1
 204 649 l 1,60,-1
 204 636 l 2,61,62
 204 626 204 626 204 614 c 128,-1,63
 204 602 204 602 204 590 c 0,64,65
 204 527 204 527 203.5 451 c 128,-1,66
 203 375 203 375 203 312 c 0,67,68
 203 311 203 311 203 310 c 1,69,-1
 203 310 l 1,70,-1
 283 226 l 1,71,-1
 354 152 l 1,72,73
 392 152 392 152 430 152 c 1,74,-1
 515 234 l 1,75,-1
 601 317 l 1,76,77
 601 339 601 339 601 360 c 128,-1,78
 601 381 601 381 601 400 c 128,-1,79
 601 419 601 419 601 452 c 0,80,81
 601 527 601 527 602 589 c 0,82,83
 602 601 602 601 602 612.5 c 128,-1,84
 602 624 602 624 602 634 c 2,85,-1
 602 647 l 1,86,-1
 602 651 l 1,87,-1
 752 651 l 1,88,-1
 752 647 l 1,89,-1
 752 634 l 2,90,91
 752 624 752 624 752 612.5 c 128,-1,92
 752 601 752 601 752 589 c 0,93,94
 751 527 751 527 751 452 c 128,-1,95
 751 377 751 377 751 315 c 0,96,97
 751 303 751 303 751 291.5 c 128,-1,98
 751 280 751 280 751 270 c 2,99,-1
 751 257 l 1,100,-1
 751 253 l 1,101,-1
 751 252 l 1,102,103
 750 252 750 252 748 250 c 0,104,105
 745 247 745 247 740 242 c 2,106,-1
 739 241 l 1,107,-1
 737 240 l 1,108,-1
 736 239 l 1,109,-1
 735 238 l 1,110,-1
 734 237 l 1,111,-1
 734 236 l 1,112,-1
 733 235 l 1,113,-1
 732 234 l 1,114,-1
 731 234 l 1,115,-1
 730 233 l 1,116,-1
 730 232 l 1,117,-1
 729 231 l 1,118,-1
 728 231 l 1,119,-1
 728 230 l 1,120,-1
 727 230 l 1,121,-1
 726 229 l 1,122,-1
 726 228 l 1,123,-1
 725 228 l 1,124,-1
 724 227 l 1,125,-1
 723 226 l 1,126,-1
 722 225 l 1,127,-1
 721 224 l 1,128,-1
 721 223 l 1,129,-1
 720 223 l 1,130,-1
 719 222 l 1,131,-1
 718 221 l 1,132,-1
 717 220 l 1,133,-1
 716 219 l 1,134,-1
 715 218 l 1,135,-1
 714 217 l 1,136,-1
 713 216 l 1,137,-1
 712 215 l 1,138,-1
 710 213 l 1,139,-1
 619 126 l 1,140,-1
 529 39 l 1,141,-1
 499 10 l 2,142,143
 494 5 494 5 490 2 c 0,144,145
 488 -1 488 -1 487 -1 c 1,146,-1
 487 -2 l 1,147,-1
 295 -2 l 1,148,-1
 295 -3 l 1,0,1
EndSplineSet
EndChar

StartChar: W
Encoding: 87 87 36
Width: 821
VWidth: 1000
GlyphClass: 2
Flags: W
LayerCount: 2
Fore
SplineSet
228 -5 m 1,0,-1
 224 -5 l 1,1,-1
 213 -5 l 2,2,3
 207 -5 207 -5 203 -5 c 2,4,-1
 53 -4 l 1,5,-1
 53 3 l 1,6,-1
 53 24 l 2,7,8
 53 40 53 40 53 59.5 c 128,-1,9
 53 79 53 79 53 98 c 0,10,11
 53 201 53 201 53 325 c 2,12,-1
 53 551 l 2,13,14
 53 571 53 571 53 590 c 128,-1,15
 53 609 53 609 53 626 c 2,16,-1
 53 647 l 1,17,-1
 53 654 l 1,18,-1
 203 654 l 1,19,-1
 203 646 l 1,20,-1
 203 626 l 2,21,22
 203 609 203 609 203 589.5 c 128,-1,23
 203 570 203 570 203 551 c 0,24,25
 203 448 203 448 203 325 c 0,26,27
 203 232 203 232 203 169 c 1,28,-1
 262 216 l 1,29,-1
 317 260 l 1,30,31
 317 268 317 268 317 278 c 0,32,33
 317 347 317 347 317 430.5 c 128,-1,34
 317 514 317 514 318 583 c 0,35,36
 318 596 318 596 318 609 c 128,-1,37
 318 622 318 622 318 633 c 2,38,-1
 318 648 l 1,39,-1
 318 653 l 1,40,-1
 468 652 l 1,41,-1
 468 647 l 1,42,-1
 468 633 l 2,43,44
 468 622 468 622 468 609 c 128,-1,45
 468 596 468 596 468 583 c 0,46,47
 467 513 467 513 467 430 c 128,-1,48
 467 347 467 347 467 277 c 0,49,50
 467 268 467 268 467 262 c 1,51,-1
 528 210 l 1,52,-1
 601 149 l 1,53,54
 601 208 601 208 601 324 c 0,55,56
 601 447 601 447 602 549 c 0,57,58
 602 569 602 569 602 588 c 128,-1,59
 602 607 602 607 602 623 c 2,60,-1
 602 644 l 1,61,-1
 602 651 l 1,62,-1
 752 651 l 1,63,-1
 752 644 l 1,64,-1
 752 623 l 2,65,66
 752 607 752 607 752 587.5 c 128,-1,67
 752 568 752 568 752 549 c 0,68,69
 751 447 751 447 751 324.5 c 128,-1,70
 751 202 751 202 751 100 c 0,71,72
 751 80 751 80 751 61 c 128,-1,73
 751 42 751 42 751 26 c 2,74,-1
 751 5 l 1,75,-1
 751 -2 l 1,76,-1
 750 -2 l 1,77,-1
 749 -2 l 1,78,79
 749 -4 749 -4 749 -5 c 1,80,81
 748 -5 748 -5 747.5 -5 c 128,-1,82
 747 -5 747 -5 745 -5 c 128,-1,83
 743 -5 743 -5 740 -5 c 2,84,-1
 739 -5 l 1,85,-1
 738 -5 l 1,86,-1
 737 -5 l 1,87,-1
 736 -5 l 1,88,-1
 735 -5 l 1,89,-1
 734 -5 l 1,90,-1
 733 -5 l 1,91,-1
 732 -5 l 1,92,-1
 731 -5 l 1,93,-1
 730 -5 l 1,94,-1
 729 -5 l 1,95,-1
 728 -5 l 1,96,-1
 727 -5 l 1,97,-1
 726 -5 l 1,98,-1
 725 -5 l 1,99,-1
 724 -5 l 1,100,-1
 723 -5 l 1,101,-1
 722 -5 l 1,102,-1
 721 -5 l 1,103,-1
 720 -5 l 1,104,-1
 718 -5 l 1,105,-1
 717 -5 l 1,106,-1
 715 -5 l 1,107,-1
 714 -5 l 1,108,-1
 713 -5 l 1,109,-1
 711 -5 l 1,110,-1
 710 -5 l 1,111,-1
 709 -5 l 1,112,-1
 708 -5 l 1,113,-1
 707 -5 l 1,114,-1
 706 -5 l 1,115,-1
 705 -5 l 1,116,-1
 704 -5 l 1,117,-1
 703 -5 l 1,118,-1
 702 -5 l 1,119,-1
 701 -5 l 1,120,-1
 700 -5 l 1,121,-1
 699 -5 l 1,122,-1
 698 -5 l 1,123,-1
 697 -5 l 1,124,-1
 696 -5 l 1,125,-1
 695 -5 l 1,126,-1
 694 -5 l 1,127,-1
 693 -5 l 1,128,-1
 692 -5 l 1,129,-1
 691 -5 l 1,130,-1
 690 -5 l 1,131,-1
 689 -5 l 1,132,-1
 688 -5 l 1,133,-1
 687 -5 l 1,134,-1
 686 -5 l 1,135,-1
 685 -5 l 1,136,-1
 684 -5 l 1,137,-1
 683 -5 l 1,138,-1
 682 -5 l 1,139,-1
 681 -5 l 1,140,-1
 680 -5 l 1,141,-1
 679 -5 l 1,142,-1
 678 -5 l 1,143,-1
 677 -5 l 1,144,-1
 676 -5 l 1,145,-1
 675 -5 l 1,146,-1
 674 -5 l 1,147,-1
 673 -5 l 1,148,-1
 672 -5 l 1,149,-1
 671 -5 l 1,150,-1
 670 -5 l 1,151,-1
 669 -5 l 1,152,-1
 668 -5 l 1,153,-1
 667 -5 l 1,154,-1
 666 -5 l 1,155,-1
 665 -5 l 1,156,-1
 664 -5 l 1,157,-1
 663 -5 l 1,158,-1
 662 -5 l 1,159,-1
 661 -5 l 1,160,-1
 660 -5 l 1,161,-1
 659 -5 l 1,162,-1
 658 -5 l 1,163,-1
 657 -5 l 1,164,-1
 656 -5 l 1,165,-1
 655 -5 l 1,166,-1
 654 -5 l 1,167,-1
 653 -5 l 1,168,-1
 652 -5 l 1,169,-1
 651 -5 l 1,170,-1
 650 -5 l 1,171,-1
 581 -6 l 1,172,-1
 580 -6 l 1,173,-1
 578 -6 l 1,174,-1
 577 -6 l 1,175,-1
 575 -6 l 1,176,-1
 574 -6 l 1,177,-1
 573 -6 l 1,178,-1
 572 -6 l 1,179,-1
 571 -6 l 1,180,-1
 570 -6 l 1,181,-1
 569 -6 l 1,182,-1
 568 -6 l 1,183,-1
 567 -6 l 1,184,-1
 566 -6 l 1,185,-1
 565 -6 l 1,186,-1
 564 -6 l 1,187,-1
 563 -6 l 1,188,-1
 562 -6 l 1,189,-1
 561 -6 l 1,190,-1
 560 -6 l 1,191,-1
 559 -6 l 1,192,-1
 558 -6 l 1,193,-1
 557 -6 l 1,194,-1
 556 -6 l 1,195,-1
 554 -6 l 1,196,-1
 553 -7 l 1,197,-1
 552 -7 l 1,198,-1
 552 -6 l 1,199,-1
 551 -6 l 1,200,-1
 550 -6 l 1,201,-1
 550 -5 l 1,202,-1
 542 2 l 1,203,-1
 515 25 l 1,204,-1
 432 95 l 1,205,-1
 392 128 l 1,206,-1
 356 99 l 1,207,-1
 268 28 l 1,208,-1
 239 5 l 1,209,-1
 231 -1 l 1,210,-1
 228 -3 l 1,211,-1
 228 -5 l 1,0,-1
EndSplineSet
EndChar

StartChar: X
Encoding: 88 88 37
Width: 823
VWidth: 1000
GlyphClass: 2
Flags: W
LayerCount: 2
Fore
SplineSet
409 183 m 1,0,-1
 273 -5 l 1,1,-1
 76 -3 l 1,2,-1
 306 324 l 1,3,-1
 63 657 l 1,4,-1
 244 659 l 1,5,-1
 400 457 l 1,6,-1
 537 651 l 1,7,-1
 749 655 l 1,8,-1
 506 319 l 1,9,-1
 753 -1 l 1,10,-1
 545 -4 l 1,11,-1
 409 183 l 1,0,-1
EndSplineSet
EndChar

StartChar: Y
Encoding: 89 89 38
Width: 878
VWidth: 1000
GlyphClass: 2
Flags: W
LayerCount: 2
Fore
SplineSet
809 651 m 1,0,1
 808 650 808 650 804 644 c 2,2,-1
 791 623 l 1,3,-1
 791 622 l 1,4,-1
 790 621 l 1,5,-1
 789 620 l 1,6,-1
 788 618 l 1,7,-1
 788 617 l 1,8,-1
 787 616 l 1,9,-1
 786 615 l 1,10,-1
 786 614 l 1,11,-1
 785 613 l 1,12,-1
 784 612 l 1,13,-1
 784 611 l 1,14,-1
 783 610 l 1,15,-1
 783 609 l 1,16,-1
 782 608 l 1,17,-1
 782 607 l 1,18,-1
 781 607 l 1,19,-1
 781 606 l 1,20,-1
 780 605 l 1,21,-1
 780 604 l 1,22,-1
 779 603 l 1,23,-1
 778 602 l 1,24,-1
 778 601 l 1,25,-1
 777 600 l 1,26,-1
 776 599 l 1,27,-1
 776 598 l 1,28,-1
 775 597 l 1,29,-1
 775 596 l 1,30,-1
 774 595 l 1,31,-1
 773 594 l 1,32,-1
 773 593 l 1,33,-1
 772 593 l 1,34,-1
 772 592 l 1,35,-1
 772 591 l 1,36,-1
 771 591 l 1,37,-1
 771 590 l 1,38,-1
 770 589 l 1,39,-1
 770 588 l 1,40,-1
 769 587 l 1,41,-1
 768 586 l 1,42,-1
 768 585 l 1,43,-1
 767 585 l 1,44,-1
 767 584 l 1,45,-1
 767 583 l 1,46,-1
 766 583 l 1,47,-1
 766 582 l 1,48,-1
 765 581 l 1,49,-1
 765 580 l 1,50,-1
 764 580 l 1,51,-1
 764 579 l 1,52,-1
 763 578 l 1,53,-1
 763 577 l 1,54,-1
 762 576 l 1,55,-1
 762 575 l 1,56,-1
 761 574 l 1,57,-1
 760 573 l 1,58,-1
 760 572 l 1,59,-1
 759 571 l 1,60,-1
 759 570 l 1,61,-1
 758 570 l 1,62,-1
 758 569 l 1,63,-1
 757 568 l 1,64,-1
 757 567 l 1,65,-1
 756 566 l 1,66,-1
 756 565 l 1,67,-1
 755 565 l 1,68,-1
 754 564 l 1,69,-1
 754 563 l 1,70,-1
 753 562 l 1,71,-1
 753 561 l 1,72,-1
 752 560 l 1,73,-1
 752 559 l 1,74,-1
 751 558 l 1,75,-1
 751 557 l 1,76,-1
 750 556 l 1,77,-1
 749 555 l 1,78,-1
 748 554 l 1,79,-1
 748 553 l 1,80,-1
 747 552 l 1,81,-1
 746 551 l 1,82,-1
 746 550 l 1,83,-1
 745 549 l 1,84,-1
 605 323 l 1,85,-1
 465 96 l 1,86,-1
 418 22 l 1,87,-1
 405 1 l 1,88,-1
 401 -6 l 1,89,-1
 400 -6 l 1,90,-1
 131 -6 l 1,91,-1
 131 158 l 1,92,93
 220 159 220 159 309 159 c 1,94,-1
 324 183 l 1,95,-1
 337 204 l 1,96,-1
 42 652 l 1,97,-1
 230 655 l 1,98,-1
 432 357 l 1,99,-1
 465 410 l 2,100,101
 487 446 487 446 510 485 c 1,102,103
 502 485 502 485 465 485 c 0,104,105
 456 485 456 485 448 485 c 128,-1,106
 440 485 440 485 434 485 c 2,107,-1
 425 485 l 1,108,-1
 422 485 l 1,109,-1
 422 650 l 1,110,-1
 425 650 l 1,111,-1
 434 650 l 2,112,113
 440 650 440 650 448 650 c 128,-1,114
 456 650 456 650 466 650 c 0,115,116
 509 650 509 650 561.5 650 c 128,-1,117
 614 650 614 650 657 650 c 0,118,119
 667 650 667 650 675 650 c 128,-1,120
 683 650 683 650 689 650 c 2,121,-1
 698 650 l 1,122,-1
 701 650 l 1,123,-1
 809 651 l 1,0,1
EndSplineSet
EndChar

StartChar: Z
Encoding: 90 90 39
Width: 826
VWidth: 1000
GlyphClass: 2
Flags: W
LayerCount: 2
Fore
SplineSet
53 654 m 1,0,-1
 751 653 l 1,1,2
 751 572 751 572 751 491 c 0,3,4
 751 490 751 490 752 489 c 1,5,6
 751 489 751 489 751 488 c 1,7,-1
 750 488 l 1,8,-1
 322 151 l 1,9,10
 539 151 539 151 756 152 c 1,11,-1
 756 -13 l 1,12,-1
 54 -14 l 1,13,14
 54 68 54 68 54 149 c 2,15,-1
 54 150 l 1,16,-1
 54 151 l 1,17,-1
 55 151 l 1,18,-1
 484 488 l 1,19,-1
 53 489 l 1,20,-1
 53 654 l 1,0,-1
EndSplineSet
EndChar
